<?xml version="1.0" encoding="UTF-8" standalone="no"?>
<!-- Created with Inkscape (http://www.inkscape.org/) -->

<svg
   xmlns:osb="http://www.openswatchbook.org/uri/2009/osb"
   xmlns:dc="http://purl.org/dc/elements/1.1/"
   xmlns:cc="http://creativecommons.org/ns#"
   xmlns:rdf="http://www.w3.org/1999/02/22-rdf-syntax-ns#"
   xmlns:svg="http://www.w3.org/2000/svg"
   xmlns="http://www.w3.org/2000/svg"
   xmlns:xlink="http://www.w3.org/1999/xlink"
   xmlns:sodipodi="http://sodipodi.sourceforge.net/DTD/sodipodi-0.dtd"
   xmlns:inkscape="http://www.inkscape.org/namespaces/inkscape"
   id="svg2"
   version="1.1"
   inkscape:version="0.48.2 r9819"
   width="1961.25"
   height="1328.75"
   xml:space="preserve"
   sodipodi:docname="cpu_simple.svg"
   inkscape:export-filename="/home/gmichi/instr_intf.png"
   inkscape:export-xdpi="200"
   inkscape:export-ydpi="200"><metadata
     id="metadata8"><rdf:RDF><cc:Work
         rdf:about=""><dc:format>image/svg+xml</dc:format><dc:type
           rdf:resource="http://purl.org/dc/dcmitype/StillImage" /><dc:title></dc:title></cc:Work></rdf:RDF></metadata><defs
     id="defs6"><marker
   inkscape:stockid="DotM"
   orient="auto"
   refY="0.0"
   refX="0.0"
   id="DotM"
   style="overflow:visible"><path
     id="path13484"
     d="M -2.5,-1.0 C -2.5,1.7600000 -4.7400000,4.0 -7.5,4.0 C -10.260000,4.0 -12.5,1.7600000 -12.5,-1.0 C -12.5,-3.7600000 -10.260000,-6.0 -7.5,-6.0 C -4.7400000,-6.0 -2.5,-3.7600000 -2.5,-1.0 z "
     style="fill-rule:evenodd;stroke:#000000;stroke-width:1.0pt;marker-start:none;marker-end:none"
     transform="scale(0.4) translate(7.4, 1)" /></marker><marker
   inkscape:stockid="DotS"
   orient="auto"
   refY="0.0"
   refX="0.0"
   id="DotS"
   style="overflow:visible"><path
     id="path13487"
     d="M -2.5,-1.0 C -2.5,1.7600000 -4.7400000,4.0 -7.5,4.0 C -10.260000,4.0 -12.5,1.7600000 -12.5,-1.0 C -12.5,-3.7600000 -10.260000,-6.0 -7.5,-6.0 C -4.7400000,-6.0 -2.5,-3.7600000 -2.5,-1.0 z "
     style="fill-rule:evenodd;stroke:#000000;stroke-width:1.0pt;marker-start:none;marker-end:none"
     transform="scale(0.2) translate(7.4, 1)" /></marker><linearGradient
   id="linearGradient13151"
   osb:paint="solid"><stop
     style="stop-color:#ffffff;stop-opacity:1;"
     offset="0"
     id="stop13153" /></linearGradient><linearGradient
   id="linearGradient13145"
   osb:paint="solid"><stop
     style="stop-color:#540000;stop-opacity:1;"
     offset="0"
     id="stop13147" /></linearGradient>




<linearGradient
   inkscape:collect="always"
   xlink:href="#linearGradient13151"
   id="linearGradient13155"
   x1="398.6"
   y1="549"
   x2="403.89951"
   y2="549"
   gradientUnits="userSpaceOnUse" /><marker
   inkscape:stockid="DotM"
   orient="auto"
   refY="0"
   refX="0"
   id="DotM-0"
   style="overflow:visible"><path
     inkscape:connector-curvature="0"
     id="path13484-5"
     d="m -2.5,-1 c 0,2.76 -2.24,5 -5,5 -2.76,0 -5,-2.24 -5,-5 0,-2.76 2.24,-5 5,-5 2.76,0 5,2.24 5,5 z"
     style="fill-rule:evenodd;stroke:#000000;stroke-width:1pt;marker-start:none;marker-end:none"
     transform="matrix(0.4,0,0,0.4,2.96,0.4)" /></marker><marker
   inkscape:stockid="DotM"
   orient="auto"
   refY="0"
   refX="0"
   id="marker20432"
   style="overflow:visible"><path
     inkscape:connector-curvature="0"
     id="path20434"
     d="m -2.5,-1 c 0,2.76 -2.24,5 -5,5 -2.76,0 -5,-2.24 -5,-5 0,-2.76 2.24,-5 5,-5 2.76,0 5,2.24 5,5 z"
     style="fill-rule:evenodd;stroke:#000000;stroke-width:1pt;marker-start:none;marker-end:none"
     transform="matrix(0.4,0,0,0.4,2.96,0.4)" /></marker><marker
   inkscape:stockid="DotM"
   orient="auto"
   refY="0"
   refX="0"
   id="marker20436"
   style="overflow:visible"><path
     inkscape:connector-curvature="0"
     id="path20438"
     d="m -2.5,-1 c 0,2.76 -2.24,5 -5,5 -2.76,0 -5,-2.24 -5,-5 0,-2.76 2.24,-5 5,-5 2.76,0 5,2.24 5,5 z"
     style="fill-rule:evenodd;stroke:#000000;stroke-width:1pt;marker-start:none;marker-end:none"
     transform="matrix(0.4,0,0,0.4,2.96,0.4)" /></marker><marker
   inkscape:stockid="DotM"
   orient="auto"
   refY="0"
   refX="0"
   id="DotM-5"
   style="overflow:visible"><path
     inkscape:connector-curvature="0"
     id="path13484-7"
     d="m -2.5,-1 c 0,2.76 -2.24,5 -5,5 -2.76,0 -5,-2.24 -5,-5 0,-2.76 2.24,-5 5,-5 2.76,0 5,2.24 5,5 z"
     style="fill-rule:evenodd;stroke:#000000;stroke-width:1pt;marker-start:none;marker-end:none"
     transform="matrix(0.4,0,0,0.4,2.96,0.4)" /></marker><marker
   inkscape:stockid="DotM"
   orient="auto"
   refY="0"
   refX="0"
   id="DotM-6"
   style="overflow:visible"><path
     inkscape:connector-curvature="0"
     id="path13484-72"
     d="m -2.5,-1 c 0,2.76 -2.24,5 -5,5 -2.76,0 -5,-2.24 -5,-5 0,-2.76 2.24,-5 5,-5 2.76,0 5,2.24 5,5 z"
     style="fill-rule:evenodd;stroke:#000000;stroke-width:1pt;marker-start:none;marker-end:none"
     transform="matrix(0.4,0,0,0.4,2.96,0.4)" /></marker></defs><sodipodi:namedview
     pagecolor="#ffffff"
     bordercolor="#666666"
     borderopacity="1"
     objecttolerance="10"
     gridtolerance="10"
     guidetolerance="10"
     inkscape:pageopacity="0"
     inkscape:pageshadow="2"
     inkscape:window-width="1920"
     inkscape:window-height="1124"
     id="namedview4"
     showgrid="true"
     units="pt"
     borderlayer="false"
     inkscape:zoom="2.0000001"
     inkscape:cx="252.11428"
     inkscape:cy="1195.6498"
     inkscape:window-x="0"
     inkscape:window-y="25"
     inkscape:window-maximized="1"
     inkscape:current-layer="g10"><inkscape:grid
       empspacing="5"
       visible="true"
       enabled="true"
       snapvisiblegridlinesonly="true"
       units="pt"
       spacingx="0.9pt"
       spacingy="0.9pt"
       type="xygrid"
       id="grid5223" /></sodipodi:namedview><g
     id="g10"
     inkscape:groupmode="layer"
     inkscape:label="ink_ext_XXXXXX"
     transform="matrix(0,1.25,1.25,0,0,42.5)">

<path
   style="fill:none;stroke:#000000;stroke-width:1;stroke-linecap:butt;stroke-linejoin:miter;stroke-miterlimit:4;stroke-opacity:1;stroke-dasharray:2, 2;stroke-dashoffset:0"
   d="m 191.25,186.875 151.875,0 0,-28.125"
   id="path15282"
   inkscape:connector-curvature="0"
   transform="matrix(0,0.8,0.8,0,-34,0)"
   sodipodi:nodetypes="ccc" /><path
   style="fill:none;stroke:#000000;stroke-width:1px;stroke-linecap:butt;stroke-linejoin:miter;stroke-opacity:1"
   d="m 270,113.75 0,22.5 -78.75,0 0,33.75"
   id="path14623"
   inkscape:connector-curvature="0"
   transform="matrix(0,0.8,0.8,0,-34,0)"
   sodipodi:nodetypes="cccc" /><path
   style="fill:none;stroke:#000000;stroke-width:1px;stroke-linecap:butt;stroke-linejoin:miter;stroke-opacity:1"
   d="m 247.5,113.75 0,11.25 -67.5,0 0,45"
   id="path14621"
   inkscape:connector-curvature="0"
   transform="matrix(0,0.8,0.8,0,-34,0)"
   sodipodi:nodetypes="cccc" /><path
   style="fill:none;stroke:#000000;stroke-width:1px;stroke-linecap:butt;stroke-linejoin:miter;stroke-opacity:1"
   d="m 146.25,170 0,-56.25"
   id="path14617"
   inkscape:connector-curvature="0"
   transform="matrix(0,0.8,0.8,0,-34,0)" /><path
   style="fill:none;stroke:#000000;stroke-width:1px;stroke-linecap:butt;stroke-linejoin:miter;stroke-opacity:1"
   d="m 168.75,158.75 0,-45"
   id="path14619"
   inkscape:connector-curvature="0"
   transform="matrix(0,0.8,0.8,0,-34,0)" /><path
   style="fill:none;stroke:#000000;stroke-width:0.80000001px;stroke-linecap:butt;stroke-linejoin:miter;stroke-opacity:1"
   d="m 128.4,297 0,18"
   id="path14609"
   inkscape:connector-curvature="0" /><path
   style="fill:none;stroke:#000000;stroke-width:1px;stroke-linecap:butt;stroke-linejoin:miter;stroke-opacity:1;marker-start:url(#DotM-6)"
   d="m 292.5,136.25 45,0"
   id="path14389"
   inkscape:connector-curvature="0"
   transform="matrix(0,0.8,0.8,0,-34,0)" /><path
   style="fill:none;stroke:#000000;stroke-width:1px;stroke-linecap:butt;stroke-linejoin:miter;stroke-opacity:1"
   d="m 315,158.75 22.5,0"
   id="path14354"
   inkscape:connector-curvature="0"
   transform="matrix(0,0.8,0.8,0,-34,0)"
   sodipodi:nodetypes="cc" /><path
   style="fill:none;stroke:#000000;stroke-width:1px;stroke-linecap:butt;stroke-linejoin:miter;stroke-opacity:1"
   d="m 292.5,113.75 0,33.75"
   id="path14334"
   inkscape:connector-curvature="0"
   transform="matrix(0,0.8,0.8,0,-34,0)" />
























<path
   style="fill:none;stroke:#000000;stroke-width:0.80000001px;stroke-linecap:butt;stroke-linejoin:miter;stroke-opacity:1"
   d="m 57,135 -36,0"
   id="path16972"
   inkscape:connector-curvature="0"
   sodipodi:nodetypes="cc" /><path
   style="fill:none;stroke:#000000;stroke-width:0.80000001px;stroke-linecap:butt;stroke-linejoin:miter;stroke-opacity:1"
   d="m 21,117 36,0"
   id="path17346"
   inkscape:connector-curvature="0"
   sodipodi:nodetypes="cc" /><rect
   style="fill:none;stroke:#0064ff;stroke-width:1.60000002;stroke-linejoin:miter;stroke-miterlimit:1;stroke-opacity:1;stroke-dasharray:none;stroke-dashoffset:0"
   id="rect17534-4"
   width="189.00003"
   height="22.5"
   x="-292.5"
   y="-21"
   ry="4.5"
   rx="4.5"
   transform="matrix(0,-1,-1,0,0,0)" />
















































































































































<text
   sodipodi:linespacing="125%"
   id="text11159-91-3-9"
   y="12"
   x="196.90012"
   style="font-size:12.80000019px;font-style:normal;font-weight:normal;text-align:center;line-height:125%;letter-spacing:0px;word-spacing:0px;text-anchor:middle;fill:#0064ff;fill-opacity:1;stroke:none;font-family:Sans"
   xml:space="preserve"
   transform="matrix(0,1,1,0,0,0)"><tspan
     id="tspan11406-1-1"
     y="12"
     x="196.90012"
     sodipodi:role="line"
     style="font-size:12.80000019px;fill:#0064ff;fill-opacity:1;stroke:none">Instruction Cache - L0 Buffer</tspan></text>





<path
   d="m 25.5,119.24976 -4.49951,0 L 16.50097,117 l 4.49952,-2.24975 4.49951,0 0,4.49951 z"
   style="fill:#ffffff;fill-opacity:1;stroke:#000000;stroke-width:0.80000001;stroke-linecap:butt;stroke-linejoin:miter;stroke-miterlimit:1;stroke-opacity:1;stroke-dasharray:none"
   id="path1644-1-5-0-9-0-6"
   inkscape:connector-curvature="0" /><path
   d="m 25.5,132.75025 -4.49951,0 -4.49952,2.24976 4.49952,2.24975 4.49951,0 0,-4.49951 z"
   style="fill:#ffffff;fill-opacity:1;stroke:#000000;stroke-width:0.80000001;stroke-linecap:butt;stroke-linejoin:miter;stroke-miterlimit:1;stroke-opacity:1;stroke-dasharray:none"
   id="path1644-1-5-0-9-0-2"
   inkscape:connector-curvature="0" />




































































































































<text
   xml:space="preserve"
   style="font-size:20px;font-style:normal;font-weight:normal;line-height:125%;letter-spacing:0px;word-spacing:0px;fill:#000000;fill-opacity:1;stroke:none;font-family:Sans;opacity:0.25"
   x="778.5246"
   y="145.05324"
   id="text4467"
   sodipodi:linespacing="125%"
   transform="matrix(0,0.8,0.8,0,-34,0)"><tspan
     sodipodi:role="line"
     id="tspan4469"
     x="778.5246"
     y="145.05324" /></text>



<rect
   style="fill:#ffffff;fill-opacity:0;fill-rule:evenodd;stroke:#0096c8;stroke-width:0.80000000999999998;stroke-linecap:square;stroke-linejoin:miter;stroke-miterlimit:4;stroke-opacity:1;stroke-dasharray:none;stroke-dashoffset:0"
   id="rect13995"
   width="198"
   height="108"
   x="99"
   y="57"
   transform="matrix(0,1,1,0,0,0)"
   ry="5.2799997" /><text
   xml:space="preserve"
   style="font-size:16px;font-style:normal;font-weight:normal;line-height:125%;letter-spacing:0px;word-spacing:0px;fill:#000000;fill-opacity:1;stroke:none;font-family:Sans"
   x="103.5"
   y="160.5"
   id="text13997"
   sodipodi:linespacing="125%"
   transform="matrix(0,1,1,0,0,0)"><tspan
     sodipodi:role="line"
     id="tspan13999"
     x="103.5"
     y="160.5">Instr Core Interface</tspan></text>
<g
   id="g14057"
   transform="translate(-63.099915,-13.5)"><path
     d="m 75,351 153,0 0,18 -153,0 z"
     style="fill:none;stroke:#64007d;stroke-width:1.60000002;stroke-linecap:butt;stroke-linejoin:miter;stroke-miterlimit:10;stroke-opacity:1;stroke-dasharray:none"
     id="path2064-1"
     inkscape:connector-curvature="0"
     sodipodi:nodetypes="ccccc" /><text
     transform="matrix(0,1,1,0,0,0)"
     xml:space="preserve"
     style="font-size:9.60000038px;font-style:normal;font-weight:normal;text-align:center;line-height:125%;letter-spacing:0px;word-spacing:0px;text-anchor:middle;fill:#64007d;fill-opacity:1;stroke:none;font-family:Sans"
     x="360"
     y="142.59991"
     id="text11159-91-7-3"
     sodipodi:linespacing="125%"><tspan
       style="font-size:9.60000038px;fill:#64007d;fill-opacity:1;stroke:none"
       sodipodi:role="line"
       x="360"
       y="142.59991"
       id="tspan11406-4-7">IF</tspan><tspan
       id="tspan20230-3"
       style="font-size:9.60000038px;fill:#64007d;fill-opacity:1;stroke:none"
       sodipodi:role="line"
       x="360"
       y="154.59991">ID</tspan></text>
<path
     inkscape:connector-curvature="0"
     id="path13203-3-5"
     d="m 228,355.2 -9,4.5 9,4.5"
     style="fill:none;stroke:#64007d;stroke-width:0.80000001px;stroke-linecap:butt;stroke-linejoin:miter;stroke-opacity:1" /></g><path
   style="fill:none;stroke:#000000;stroke-width:0.80000001px;stroke-linecap:butt;stroke-linejoin:miter;stroke-opacity:1"
   d="m 84,297 0,40.5"
   id="path14064"
   inkscape:connector-curvature="0"
   sodipodi:nodetypes="cc" /><text
   xml:space="preserve"
   style="font-size:8px;font-style:normal;font-weight:normal;line-height:125%;letter-spacing:0px;word-spacing:0px;fill:#000000;fill-opacity:1;stroke:none;font-family:Sans"
   x="139.5"
   y="34.5"
   id="text18110-7-6-3-6-0-2-13-7"
   sodipodi:linespacing="125%"
   transform="matrix(0,1,1,0,0,0)"><tspan
     sodipodi:role="line"
     id="tspan18112-0-8-3-9-4-6-8-4"
     x="139.5"
     y="34.5">instr_addr</tspan></text>
<text
   xml:space="preserve"
   style="font-size:8px;font-style:normal;font-weight:normal;line-height:125%;letter-spacing:0px;word-spacing:0px;fill:#000000;fill-opacity:1;stroke:none;font-family:Sans"
   x="160.39999"
   y="64.400002"
   id="text18110-7-6-3-6-0-2-13-7-1"
   sodipodi:linespacing="125%"
   transform="matrix(0,1,1,0,0,0)"><tspan
     sodipodi:role="line"
     id="tspan18112-0-8-3-9-4-6-8-4-3"
     x="160.39999"
     y="64.400002">instr_gnt</tspan></text>
<text
   xml:space="preserve"
   style="font-size:8px;font-style:normal;font-weight:normal;line-height:125%;letter-spacing:0px;word-spacing:0px;fill:#000000;fill-opacity:1;stroke:none;font-family:Sans"
   x="139.5"
   y="48"
   id="text18110-7-6-3-6-0-2-13-7-7"
   sodipodi:linespacing="125%"
   transform="matrix(0,1,1,0,0,0)"><tspan
     sodipodi:role="line"
     id="tspan18112-0-8-3-9-4-6-8-4-9"
     x="139.5"
     y="48">instr_req</tspan></text>
<text
   xml:space="preserve"
   style="font-size:8px;font-style:normal;font-weight:normal;line-height:125%;letter-spacing:0px;word-spacing:0px;fill:#000000;fill-opacity:1;stroke:none;font-family:Sans"
   x="160.39999"
   y="73.400002"
   id="text18110-7-6-3-6-0-2-13-7-1-8"
   sodipodi:linespacing="125%"
   transform="matrix(0,1,1,0,0,0)"><tspan
     sodipodi:role="line"
     id="tspan18112-0-8-3-9-4-6-8-4-3-0"
     x="160.39999"
     y="73.400002">instr_rvalid</tspan></text>
<text
   xml:space="preserve"
   style="font-size:8px;font-style:normal;font-weight:normal;line-height:125%;letter-spacing:0px;word-spacing:0px;fill:#000000;fill-opacity:1;stroke:none;font-family:Sans"
   x="238.5"
   y="43.5"
   id="text18110-7-6-3-6-0-2-13-7-1-3"
   sodipodi:linespacing="125%"
   transform="matrix(0,1,1,0,0,0)"><tspan
     sodipodi:role="line"
     id="tspan18112-0-8-3-9-4-6-8-4-3-2"
     x="238.5"
     y="43.5">instr_rdata</tspan></text>
<path
   style="fill:none;stroke:#000000;stroke-width:0.80000001px;stroke-linecap:butt;stroke-linejoin:miter;stroke-opacity:1"
   d="m 57,198 -36,0"
   id="path16972-2"
   inkscape:connector-curvature="0"
   sodipodi:nodetypes="cc" /><path
   style="fill:none;stroke:#000000;stroke-width:0.80000001px;stroke-linecap:butt;stroke-linejoin:miter;stroke-opacity:1"
   d="m 57,216 -36,0"
   id="path16972-1"
   inkscape:connector-curvature="0"
   sodipodi:nodetypes="cc" /><path
   style="fill:none;stroke:#000000;stroke-width:0.80000001px;stroke-linecap:butt;stroke-linejoin:miter;stroke-opacity:1"
   d="m 57,234 -36,0"
   id="path16972-27"
   inkscape:connector-curvature="0"
   sodipodi:nodetypes="cc" /><path
   d="m 16.50097,231.75025 4.49951,0 4.49952,2.24976 -4.49952,2.24975 -4.49951,0 0,-4.49951 z"
   style="fill:#ffffff;fill-opacity:1;stroke:#000000;stroke-width:0.80000001;stroke-linecap:butt;stroke-linejoin:miter;stroke-miterlimit:1;stroke-opacity:1;stroke-dasharray:none"
   id="path1644-1-5-0-9-0-2-7"
   inkscape:connector-curvature="0" /><path
   d="m 16.50096,213.75025 4.49951,0 4.49952,2.24976 -4.49952,2.24975 -4.49951,0 0,-4.49951 z"
   style="fill:#ffffff;fill-opacity:1;stroke:#000000;stroke-width:0.80000001;stroke-linecap:butt;stroke-linejoin:miter;stroke-miterlimit:1;stroke-opacity:1;stroke-dasharray:none"
   id="path1644-1-5-0-9-0-2-7-5"
   inkscape:connector-curvature="0" /><path
   d="m 16.50096,195.75025 4.49951,0 4.49952,2.24976 -4.49952,2.24975 -4.49951,0 0,-4.49951 z"
   style="fill:#ffffff;fill-opacity:1;stroke:#000000;stroke-width:0.80000001;stroke-linecap:butt;stroke-linejoin:miter;stroke-miterlimit:1;stroke-opacity:1;stroke-dasharray:none"
   id="path1644-1-5-0-9-0-2-7-8"
   inkscape:connector-curvature="0" /><path
   d="m 52.50097,231.75025 4.49951,0 4.49952,2.24976 -4.49952,2.24975 -4.49951,0 0,-4.49951 z"
   style="fill:#ffffff;fill-opacity:1;stroke:#000000;stroke-width:0.80000001;stroke-linecap:butt;stroke-linejoin:miter;stroke-miterlimit:1;stroke-opacity:1;stroke-dasharray:none"
   id="path1644-1-5-0-9-0-2-7-0"
   inkscape:connector-curvature="0" /><path
   d="m 52.50096,213.75025 4.49951,0 4.49952,2.24976 -4.49952,2.24975 -4.49951,0 0,-4.49951 z"
   style="fill:#ffffff;fill-opacity:1;stroke:#000000;stroke-width:0.80000001;stroke-linecap:butt;stroke-linejoin:miter;stroke-miterlimit:1;stroke-opacity:1;stroke-dasharray:none"
   id="path1644-1-5-0-9-0-2-7-5-7"
   inkscape:connector-curvature="0" /><path
   d="m 52.50096,195.75025 4.49951,0 4.49952,2.24976 -4.49952,2.24975 -4.49951,0 0,-4.49951 z"
   style="fill:#ffffff;fill-opacity:1;stroke:#000000;stroke-width:0.80000001;stroke-linecap:butt;stroke-linejoin:miter;stroke-miterlimit:1;stroke-opacity:1;stroke-dasharray:none"
   id="path1644-1-5-0-9-0-2-7-8-7"
   inkscape:connector-curvature="0" /><path
   d="m 61.5,119.24976 -4.49951,0 L 52.50097,117 l 4.49952,-2.24975 4.49951,0 0,4.49951 z"
   style="fill:#ffffff;fill-opacity:1;stroke:#000000;stroke-width:0.80000001;stroke-linecap:butt;stroke-linejoin:miter;stroke-miterlimit:1;stroke-opacity:1;stroke-dasharray:none"
   id="path1644-1-5-0-9-0-6-9"
   inkscape:connector-curvature="0" /><path
   d="m 61.5,132.75025 -4.49951,0 -4.49952,2.24976 4.49952,2.24975 4.49951,0 0,-4.49951 z"
   style="fill:#ffffff;fill-opacity:1;stroke:#000000;stroke-width:0.80000001;stroke-linecap:butt;stroke-linejoin:miter;stroke-miterlimit:1;stroke-opacity:1;stroke-dasharray:none"
   id="path1644-1-5-0-9-0-2-9"
   inkscape:connector-curvature="0" /><rect
   style="fill:#ffffff;fill-opacity:0;fill-rule:evenodd;stroke:#000000;stroke-width:0.80000001;stroke-linecap:square;stroke-linejoin:miter;stroke-miterlimit:4;stroke-opacity:1;stroke-dasharray:none;stroke-dashoffset:0"
   id="rect14296"
   width="45"
   height="27"
   x="207"
   y="84"
   transform="matrix(0,1,1,0,0,0)"
   rx="9"
   ry="9" /><text
   xml:space="preserve"
   style="font-size:16px;font-style:normal;font-weight:normal;line-height:125%;letter-spacing:0px;word-spacing:0px;fill:#000000;fill-opacity:1;stroke:none;font-family:Sans"
   x="218.18686"
   y="95.619064"
   id="text14298"
   sodipodi:linespacing="125%"
   transform="matrix(0,1,1,0,0,0)"><tspan
     sodipodi:role="line"
     id="tspan14300"
     x="218.18686"
     y="95.619064"
     style="font-size:9.60000038px">buffer</tspan></text>
<path
   sodipodi:nodetypes="ccc"
   inkscape:connector-curvature="0"
   id="path450-9-8"
   style="fill:none;stroke:#000000;stroke-width:0.80000001;stroke-linecap:butt;stroke-linejoin:miter;stroke-miterlimit:1;stroke-opacity:1;stroke-dasharray:none"
   d="m 110.99987,225.00001 -8.99999,4.49999 8.99999,4.5" /><path
   sodipodi:nodetypes="ccccc"
   inkscape:connector-curvature="0"
   id="path814-7-7-3-6"
   style="fill:#ffffff;stroke:#000000;stroke-width:0.80000000999999998;stroke-linecap:butt;stroke-linejoin:miter;stroke-miterlimit:1;stroke-opacity:1;stroke-dasharray:none;fill-opacity:1"
   d="m 66,265.5 9,13.5 18,0 9,-13.5 z" /><path
   style="fill:none;stroke:#000000;stroke-width:1px;stroke-linecap:butt;stroke-linejoin:miter;stroke-opacity:1"
   d="m 348.75,147.5 22.5,0"
   id="path14356"
   inkscape:connector-curvature="0"
   transform="matrix(0,0.8,0.8,0,-34,0)"
   sodipodi:nodetypes="cc" /><path
   d="m 86.25023,293.10049 0,4.49951 -2.24976,4.49952 -2.24975,-4.49952 0,-4.49951 4.49951,0 z"
   style="fill:#ffffff;fill-opacity:1;stroke:#000000;stroke-width:0.80000001;stroke-linecap:butt;stroke-linejoin:miter;stroke-miterlimit:1;stroke-opacity:1;stroke-dasharray:none"
   id="path1644-1-5-0-9-0-2-7-8-7-3"
   inkscape:connector-curvature="0" /><path
   sodipodi:type="arc"
   style="fill:#ffffff;fill-opacity:1;fill-rule:evenodd;stroke:#000000;stroke-width:1;stroke-linecap:square;stroke-linejoin:miter;stroke-miterlimit:4;stroke-opacity:1;stroke-dasharray:none;stroke-dashoffset:0"
   id="path14383"
   sodipodi:cx="168.75"
   sodipodi:cy="175.625"
   sodipodi:rx="33.75"
   sodipodi:ry="16.875"
   d="m 202.5,175.625 a 33.75,16.875 0 1 1 -67.5,0 33.75,16.875 0 1 1 67.5,0 z"
   transform="matrix(0,0.8,0.8,0,-34,0)" /><text
   xml:space="preserve"
   style="font-size:16px;font-style:normal;font-weight:normal;line-height:125%;letter-spacing:0px;word-spacing:0px;fill:#000000;fill-opacity:1;stroke:none;font-family:Sans"
   x="117"
   y="111"
   id="text14385"
   sodipodi:linespacing="125%"
   transform="matrix(0,1,1,0,0,0)"><tspan
     sodipodi:role="line"
     id="tspan14387"
     x="117"
     y="111">FSM</tspan></text>
<text
   xml:space="preserve"
   style="font-size:16px;font-style:normal;font-weight:normal;line-height:125%;letter-spacing:0px;word-spacing:0px;fill:#000000;fill-opacity:1;stroke:none;font-family:Sans"
   x="300.76718"
   y="81.945564"
   id="text14585"
   sodipodi:linespacing="125%"
   transform="matrix(0,1,1,0,0,0)"><tspan
     sodipodi:role="line"
     id="tspan14587"
     x="300.76718"
     y="81.945564"
     style="font-size:9.60000038px">instr_id</tspan></text>
<path
   style="fill:none;stroke:#000000;stroke-width:0.80000001px;stroke-linecap:butt;stroke-linejoin:miter;stroke-opacity:1"
   d="m 129,297 0,-108 0,-54 -9,0"
   id="path14589"
   inkscape:connector-curvature="0"
   sodipodi:nodetypes="cccc" /><path
   d="m 131.24976,301.49903 0,-4.49951 L 129,292.5 l -2.24975,4.49952 0,4.49951 4.49951,0 z"
   style="fill:#ffffff;fill-opacity:1;stroke:#000000;stroke-width:0.80000001;stroke-linecap:butt;stroke-linejoin:miter;stroke-miterlimit:1;stroke-opacity:1;stroke-dasharray:none"
   id="path1644-1-5-0-9-0-2-7-8-7-3-8"
   inkscape:connector-curvature="0" /><text
   xml:space="preserve"
   style="font-size:16px;font-style:normal;font-weight:normal;line-height:125%;letter-spacing:0px;word-spacing:0px;fill:#000000;fill-opacity:1;stroke:none;font-family:Sans"
   x="255.12411"
   y="126.18271"
   id="text14611"
   sodipodi:linespacing="125%"
   transform="matrix(0,1,1,0,0,0)"><tspan
     sodipodi:role="line"
     id="tspan14613"
     x="255.12411"
     y="126.18271"
     style="font-size:9.60000038px">id_stall</tspan></text>
<path
   style="fill:none;stroke:#000000;stroke-width:1px;stroke-linecap:butt;stroke-linejoin:miter;stroke-opacity:1;marker-start:url(#DotM-6)"
   d="m 225,203.75 0,-30.125 11.25,0"
   id="path14615"
   inkscape:connector-curvature="0"
   transform="matrix(0,0.8,0.8,0,-34,0)"
   sodipodi:nodetypes="ccc" /><path
   style="fill:none;stroke:#000000;stroke-width:0.80000001px;stroke-linecap:butt;stroke-linejoin:miter;stroke-opacity:1;marker-start:url(#DotM-6)"
   d="m 75,180 25.4,0 0,9"
   id="path14823"
   inkscape:connector-curvature="0"
   sodipodi:nodetypes="ccc" /><g
   id="g17930"
   transform="matrix(0.56363636,0,0,0.56363636,19.807343,-25.106642)"
   style="fill:#ffffff;fill-opacity:1"><path
     sodipodi:nodetypes="cccc"
     inkscape:connector-curvature="0"
     id="path17918"
     d="m 140.25,389.25 0,-9 13.5,0 0,9"
     style="fill:#ffffff;fill-opacity:1;stroke:#000000;stroke-width:0.80000001px;stroke-linecap:butt;stroke-linejoin:miter;stroke-opacity:1" /><path
     sodipodi:open="true"
     sodipodi:end="3.1476022"
     sodipodi:start="0"
     transform="matrix(-0.8,0,0,0.8,540.75,242)"
     d="m 500.625,184.0625 c 0,4.6599 -3.7776,8.4375 -8.4375,8.4375 -4.6599,0 -8.4375,-3.7776 -8.4375,-8.4375 0,-0.0169 5e-5,-0.0338 1.5e-4,-0.0507"
     sodipodi:ry="8.4375"
     sodipodi:rx="8.4375"
     sodipodi:cy="184.0625"
     sodipodi:cx="492.1875"
     id="path17922"
     style="fill:#ffffff;fill-opacity:1;fill-rule:evenodd;stroke:#000000;stroke-width:1;stroke-linejoin:round;stroke-miterlimit:1;stroke-opacity:1;stroke-dasharray:none;stroke-dashoffset:0"
     sodipodi:type="arc" /></g><path
   style="fill:none;stroke:#000000;stroke-width:0.80000001px;stroke-linecap:butt;stroke-linejoin:miter;stroke-opacity:1"
   d="m 102,198 0,9"
   id="path15237"
   inkscape:connector-curvature="0" /><path
   style="fill:none;stroke:#000000;stroke-width:1px;stroke-linecap:butt;stroke-linejoin:miter;stroke-opacity:1"
   d="m 393.75,215 -247.5,0 0,-28.125"
   id="path15239"
   inkscape:connector-curvature="0"
   transform="matrix(0,0.8,0.8,0,-34,0)"
   sodipodi:nodetypes="ccc" /><path
   d="m 140.24976,301.49903 0,-4.49951 L 138,292.5 l -2.24975,4.49952 0,4.49951 4.49951,0 z"
   style="fill:#ffffff;fill-opacity:1;stroke:#000000;stroke-width:0.80000001;stroke-linecap:butt;stroke-linejoin:miter;stroke-miterlimit:1;stroke-opacity:1;stroke-dasharray:none"
   id="path1644-1-5-0-9-0-2-7-8-7-3-8-7"
   inkscape:connector-curvature="0" /><text
   xml:space="preserve"
   style="font-size:16px;font-style:normal;font-weight:normal;line-height:125%;letter-spacing:0px;word-spacing:0px;fill:#000000;fill-opacity:1;stroke:none;font-family:Sans"
   x="254.89999"
   y="136.70001"
   id="text14611-1"
   sodipodi:linespacing="125%"
   transform="matrix(0,1,1,0,0,0)"><tspan
     sodipodi:role="line"
     id="tspan14613-5"
     x="254.89999"
     y="136.70001"
     style="font-size:9.60000038px">next_pc</tspan></text>
<path
   style="fill:none;stroke:#000000;stroke-width:1;stroke-linecap:butt;stroke-linejoin:miter;stroke-opacity:1;stroke-miterlimit:4;stroke-dasharray:3,3;stroke-dashoffset:0"
   d="m 146.25,186.875 0,-22.5"
   id="path15280"
   inkscape:connector-curvature="0"
   transform="matrix(0,0.8,0.8,0,-34,0)"
   sodipodi:nodetypes="cc" /></g></svg>