<?xml version="1.0" encoding="UTF-8" standalone="no"?>
<!-- Created with Inkscape (http://www.inkscape.org/) -->

<svg
   xmlns:osb="http://www.openswatchbook.org/uri/2009/osb"
   xmlns:dc="http://purl.org/dc/elements/1.1/"
   xmlns:cc="http://creativecommons.org/ns#"
   xmlns:rdf="http://www.w3.org/1999/02/22-rdf-syntax-ns#"
   xmlns:svg="http://www.w3.org/2000/svg"
   xmlns="http://www.w3.org/2000/svg"
   xmlns:xlink="http://www.w3.org/1999/xlink"
   xmlns:sodipodi="http://sodipodi.sourceforge.net/DTD/sodipodi-0.dtd"
   xmlns:inkscape="http://www.inkscape.org/namespaces/inkscape"
   id="svg2"
   version="1.1"
   inkscape:version="0.48.2 r9819"
   width="1961.25"
   height="1328.75"
   xml:space="preserve"
   sodipodi:docname="cpu_blocks.svg"
   inkscape:export-filename="/home/gmichi/teaching/ASoCD/2015/exercise/OpenRISC_EX/cpu_blocks.png"
   inkscape:export-xdpi="200"
   inkscape:export-ydpi="200"><metadata
     id="metadata8"><rdf:RDF><cc:Work
         rdf:about=""><dc:format>image/svg+xml</dc:format><dc:type
           rdf:resource="http://purl.org/dc/dcmitype/StillImage" /><dc:title></dc:title></cc:Work></rdf:RDF></metadata><defs
     id="defs6"><marker
   inkscape:stockid="Arrow1Mend"
   orient="auto"
   refY="0.0"
   refX="0.0"
   id="Arrow1Mend"
   style="overflow:visible;"><path
     id="path4833"
     d="M 0.0,0.0 L 5.0,-5.0 L -12.5,0.0 L 5.0,5.0 L 0.0,0.0 z "
     style="fill-rule:evenodd;stroke:#000000;stroke-width:1.0pt;marker-start:none;"
     transform="scale(0.4) rotate(180) translate(10,0)" /></marker><marker
   inkscape:stockid="DotM"
   orient="auto"
   refY="0.0"
   refX="0.0"
   id="DotM"
   style="overflow:visible"><path
     id="path13484"
     d="M -2.5,-1.0 C -2.5,1.7600000 -4.7400000,4.0 -7.5,4.0 C -10.260000,4.0 -12.5,1.7600000 -12.5,-1.0 C -12.5,-3.7600000 -10.260000,-6.0 -7.5,-6.0 C -4.7400000,-6.0 -2.5,-3.7600000 -2.5,-1.0 z "
     style="fill-rule:evenodd;stroke:#000000;stroke-width:1.0pt;marker-start:none;marker-end:none"
     transform="scale(0.4) translate(7.4, 1)" /></marker><marker
   inkscape:stockid="DotS"
   orient="auto"
   refY="0.0"
   refX="0.0"
   id="DotS"
   style="overflow:visible"><path
     id="path13487"
     d="M -2.5,-1.0 C -2.5,1.7600000 -4.7400000,4.0 -7.5,4.0 C -10.260000,4.0 -12.5,1.7600000 -12.5,-1.0 C -12.5,-3.7600000 -10.260000,-6.0 -7.5,-6.0 C -4.7400000,-6.0 -2.5,-3.7600000 -2.5,-1.0 z "
     style="fill-rule:evenodd;stroke:#000000;stroke-width:1.0pt;marker-start:none;marker-end:none"
     transform="scale(0.2) translate(7.4, 1)" /></marker><linearGradient
   id="linearGradient13151"
   osb:paint="solid"><stop
     style="stop-color:#ffffff;stop-opacity:1;"
     offset="0"
     id="stop13153" /></linearGradient><linearGradient
   id="linearGradient13145"
   osb:paint="solid"><stop
     style="stop-color:#540000;stop-opacity:1;"
     offset="0"
     id="stop13147" /></linearGradient>




<linearGradient
   inkscape:collect="always"
   xlink:href="#linearGradient13151"
   id="linearGradient13155"
   x1="398.6"
   y1="549"
   x2="403.89951"
   y2="549"
   gradientUnits="userSpaceOnUse" /><marker
   inkscape:stockid="DotM"
   orient="auto"
   refY="0"
   refX="0"
   id="DotM-0"
   style="overflow:visible"><path
     inkscape:connector-curvature="0"
     id="path13484-5"
     d="m -2.5,-1 c 0,2.76 -2.24,5 -5,5 -2.76,0 -5,-2.24 -5,-5 0,-2.76 2.24,-5 5,-5 2.76,0 5,2.24 5,5 z"
     style="fill-rule:evenodd;stroke:#000000;stroke-width:1pt;marker-start:none;marker-end:none"
     transform="matrix(0.4,0,0,0.4,2.96,0.4)" /></marker><marker
   inkscape:stockid="DotM"
   orient="auto"
   refY="0"
   refX="0"
   id="marker20432"
   style="overflow:visible"><path
     inkscape:connector-curvature="0"
     id="path20434"
     d="m -2.5,-1 c 0,2.76 -2.24,5 -5,5 -2.76,0 -5,-2.24 -5,-5 0,-2.76 2.24,-5 5,-5 2.76,0 5,2.24 5,5 z"
     style="fill-rule:evenodd;stroke:#000000;stroke-width:1pt;marker-start:none;marker-end:none"
     transform="matrix(0.4,0,0,0.4,2.96,0.4)" /></marker><marker
   inkscape:stockid="DotM"
   orient="auto"
   refY="0"
   refX="0"
   id="marker20436"
   style="overflow:visible"><path
     inkscape:connector-curvature="0"
     id="path20438"
     d="m -2.5,-1 c 0,2.76 -2.24,5 -5,5 -2.76,0 -5,-2.24 -5,-5 0,-2.76 2.24,-5 5,-5 2.76,0 5,2.24 5,5 z"
     style="fill-rule:evenodd;stroke:#000000;stroke-width:1pt;marker-start:none;marker-end:none"
     transform="matrix(0.4,0,0,0.4,2.96,0.4)" /></marker><marker
   inkscape:stockid="DotM"
   orient="auto"
   refY="0"
   refX="0"
   id="DotM-5"
   style="overflow:visible"><path
     inkscape:connector-curvature="0"
     id="path13484-7"
     d="m -2.5,-1 c 0,2.76 -2.24,5 -5,5 -2.76,0 -5,-2.24 -5,-5 0,-2.76 2.24,-5 5,-5 2.76,0 5,2.24 5,5 z"
     style="fill-rule:evenodd;stroke:#000000;stroke-width:1pt;marker-start:none;marker-end:none"
     transform="matrix(0.4,0,0,0.4,2.96,0.4)" /></marker><marker
   inkscape:stockid="DotM"
   orient="auto"
   refY="0"
   refX="0"
   id="DotM-6"
   style="overflow:visible"><path
     inkscape:connector-curvature="0"
     id="path13484-72"
     d="m -2.5,-1 c 0,2.76 -2.24,5 -5,5 -2.76,0 -5,-2.24 -5,-5 0,-2.76 2.24,-5 5,-5 2.76,0 5,2.24 5,5 z"
     style="fill-rule:evenodd;stroke:#000000;stroke-width:1pt;marker-start:none;marker-end:none"
     transform="matrix(0.4,0,0,0.4,2.96,0.4)" /></marker></defs><sodipodi:namedview
     pagecolor="#ffffff"
     bordercolor="#666666"
     borderopacity="1"
     objecttolerance="10"
     gridtolerance="10"
     guidetolerance="10"
     inkscape:pageopacity="0"
     inkscape:pageshadow="2"
     inkscape:window-width="1920"
     inkscape:window-height="1124"
     id="namedview4"
     showgrid="true"
     units="pt"
     borderlayer="false"
     inkscape:zoom="2.0000001"
     inkscape:cx="466.73255"
     inkscape:cy="1127.8827"
     inkscape:window-x="0"
     inkscape:window-y="25"
     inkscape:window-maximized="1"
     inkscape:current-layer="g10"><inkscape:grid
       empspacing="5"
       visible="true"
       enabled="true"
       snapvisiblegridlinesonly="true"
       units="pt"
       spacingx="0.9pt"
       spacingy="0.9pt"
       type="xygrid"
       id="grid5223" /></sodipodi:namedview><g
     id="g10"
     inkscape:groupmode="layer"
     inkscape:label="ink_ext_XXXXXX"
     transform="matrix(0,1.25,1.25,0,0,42.5)">




<path
   sodipodi:nodetypes="ccccc"
   inkscape:connector-curvature="0"
   id="path2064"
   style="fill:none;stroke:#64007d;stroke-width:1.60000002;stroke-linecap:butt;stroke-linejoin:miter;stroke-miterlimit:10;stroke-opacity:1;stroke-dasharray:none"
   d="m 106.5,256.5 130.5,0 0,18 -130.5,0 z" /><path
   sodipodi:nodetypes="ccccc"
   inkscape:connector-curvature="0"
   id="path2064-2"
   style="fill:none;stroke:#64007d;stroke-width:1.60000002;stroke-linecap:butt;stroke-linejoin:miter;stroke-miterlimit:10;stroke-opacity:1;stroke-dasharray:none"
   d="M 75.000287,436.5 237,436.5 l 0,18 -162,0 z" /><path
   sodipodi:nodetypes="ccccc"
   inkscape:connector-curvature="0"
   id="path2064-26"
   style="fill:none;stroke:#64007d;stroke-width:1.60000002;stroke-linecap:butt;stroke-linejoin:miter;stroke-miterlimit:10;stroke-opacity:1;stroke-dasharray:none"
   d="M 75.000287,567 237,567 l 0,18 -162,0 z" /><rect
   ry="9.000001"
   transform="matrix(0,1,1,0,0,0)"
   y="142.5"
   x="337.5"
   height="85.5"
   width="49.5"
   id="rect10624"
   style="opacity:0.56147539;fill:none;stroke:#000000;stroke-width:1.60000002;stroke-linejoin:round;stroke-miterlimit:4;stroke-opacity:1;stroke-dasharray:none;stroke-dashoffset:0" /><text
   transform="matrix(0,1,1,0,0,0)"
   sodipodi:linespacing="125%"
   id="text11159"
   y="179.79999"
   x="349.39999"
   style="font-size:12.80000019px;font-style:normal;font-weight:normal;line-height:125%;letter-spacing:0px;word-spacing:0px;fill:#000000;fill-opacity:1;stroke:none;font-family:Sans"
   xml:space="preserve"><tspan
     y="179.79999"
     x="349.39999"
     id="tspan11161"
     sodipodi:role="line"
     style="stroke:none">GPR</tspan></text>








<rect
   ry="9.000001"
   transform="matrix(0,1,1,0,0,0)"
   y="102"
   x="477"
   height="31.5"
   width="49.5"
   id="rect10624-5"
   style="opacity:0.56147539;fill:none;stroke:#007dff;stroke-width:1.60000002;stroke-linejoin:round;stroke-miterlimit:4;stroke-opacity:1;stroke-dasharray:none;stroke-dashoffset:0" /><text
   transform="matrix(0,1,1,0,0,0)"
   sodipodi:linespacing="125%"
   id="text11159-9"
   y="120"
   x="485.39996"
   style="font-size:12.80000019px;font-style:normal;font-weight:normal;line-height:125%;letter-spacing:0px;word-spacing:0px;fill:#000000;fill-opacity:1;stroke:none;font-family:Sans"
   xml:space="preserve"><tspan
     y="120"
     x="485.39996"
     id="tspan11161-4"
     sodipodi:role="line"
     style="stroke:none">ALU</tspan></text>








<text
   transform="matrix(0,1,1,0,0,0)"
   sodipodi:linespacing="125%"
   id="text11159-91"
   y="168.20001"
   x="504.30002"
   style="font-size:12.80000019px;font-style:normal;font-weight:normal;text-align:center;line-height:125%;letter-spacing:0px;word-spacing:0px;text-anchor:middle;fill:#000000;fill-opacity:1;stroke:none;font-family:Sans"
   xml:space="preserve"><tspan
     y="168.20001"
     x="504.30002"
     sodipodi:role="line"
     style="stroke:none"
     id="tspan3318">MULT</tspan><tspan
     y="184.20001"
     x="504.30002"
     sodipodi:role="line"
     style="stroke:none"
     id="tspan3316">MAC</tspan></text>








<rect
   ry="9"
   transform="matrix(0,1,1,0,0,0)"
   y="174.00002"
   x="603"
   height="58.499969"
   width="36"
   id="rect10624-0-1"
   style="opacity:0.56147539;fill:none;stroke:#000000;stroke-width:1.60000002;stroke-linejoin:round;stroke-miterlimit:4;stroke-opacity:1;stroke-dasharray:none;stroke-dashoffset:0" /><text
   transform="matrix(0,1,1,0,0,0)"
   sodipodi:linespacing="125%"
   id="text11159-91-1"
   y="187.50003"
   x="607.50098"
   style="font-size:12.80000019px;font-style:normal;font-weight:normal;line-height:125%;letter-spacing:0px;word-spacing:0px;fill:#000000;fill-opacity:1;stroke:none;font-family:Sans"
   xml:space="preserve"><tspan
     y="187.50003"
     x="607.50098"
     id="tspan11161-7-5"
     sodipodi:role="line"
     style="stroke:none">SPR</tspan></text>








<rect
   transform="matrix(0,1,1,0,0,0)"
   ry="9"
   y="151.5"
   x="477"
   height="40.5"
   width="54"
   id="rect10624-0-6"
   style="opacity:0.56147539;fill:none;stroke:#007dff;stroke-width:1.60000002;stroke-linejoin:round;stroke-miterlimit:4;stroke-opacity:1;stroke-dasharray:none;stroke-dashoffset:0" /><path
   sodipodi:nodetypes="ccccc"
   inkscape:connector-curvature="0"
   id="path814-7-7-3-6"
   style="fill:none;stroke:#000000;stroke-width:0.80000001;stroke-linecap:butt;stroke-linejoin:miter;stroke-miterlimit:1;stroke-opacity:1;stroke-dasharray:none"
   d="M 84,616.49999 93,630 l 36,0 9,-13.50001 z" /><path
   style="fill:none;stroke:#000000;stroke-width:0.80000001px;stroke-linecap:butt;stroke-linejoin:miter;stroke-opacity:1;marker-end:url(#Arrow1Mend)"
   d="m 48,594 -13.5,0 m 27,0 31.5,0 0,22.5"
   id="path14798"
   inkscape:connector-curvature="0"
   sodipodi:nodetypes="ccccc" /><path
   style="fill:none;stroke:#000000;stroke-width:0.80000001px;stroke-linecap:butt;stroke-linejoin:miter;stroke-opacity:1;marker-end:url(#Arrow1Mend)"
   d="m 192,639 0,9 -31.5,0 0,-40.5 -31.5,0 0,9"
   id="path14800"
   inkscape:connector-curvature="0"
   sodipodi:nodetypes="cccccc" /><path
   style="fill:none;stroke:#000000;stroke-width:0.80000001px;stroke-linecap:butt;stroke-linejoin:miter;stroke-opacity:1;marker-end:url(#Arrow1Mend)"
   d="m 146.99999,585 0,9 -35.99999,0 0,22.5"
   id="path14802"
   inkscape:connector-curvature="0"
   sodipodi:nodetypes="cccc" />







<path
   style="fill:none;stroke:#000000;stroke-width:0.80000001px;stroke-linecap:butt;stroke-linejoin:miter;stroke-opacity:1;marker-start:none"
   d="m 88.5,454.5 0,27 -27,0 m -27,0 13.5,0"
   id="path17348"
   inkscape:connector-curvature="0"
   sodipodi:nodetypes="ccccc" /><rect
   style="fill:none;stroke:#0064ff;stroke-width:1.60000002;stroke-linejoin:round;stroke-miterlimit:1;stroke-opacity:1;stroke-dasharray:none;stroke-dashoffset:0"
   id="rect17534"
   width="171"
   height="22.5"
   x="440.99951"
   y="11.99952"
   transform="matrix(0,1,1,0,0,0)"
   ry="4.5"
   rx="4.5" /><rect
   style="fill:none;stroke:#0064ff;stroke-width:1.60000002;stroke-linejoin:miter;stroke-miterlimit:1;stroke-opacity:1;stroke-dasharray:none;stroke-dashoffset:0"
   id="rect17534-4"
   width="189.00003"
   height="22.5"
   x="-396"
   y="-34.5"
   ry="4.5"
   rx="4.5"
   transform="matrix(0,-1,-1,0,0,0)" /><rect
   style="fill:none;stroke:#238b45;stroke-width:1.60000002;stroke-linejoin:round;stroke-miterlimit:1;stroke-opacity:1;stroke-dasharray:none;stroke-dashoffset:0"
   id="rect17554"
   width="459"
   height="202.5"
   x="198"
   y="43.5"
   transform="matrix(0,1,1,0,0,0)"
   rx="3.5999999"
   ry="3.5999999" />















































<path
   style="fill:none;stroke:#000000;stroke-width:0.80000001px;stroke-linecap:butt;stroke-linejoin:miter;stroke-opacity:1"
   d="m 232.49999,616.5 -9,4.5 9,4.5"
   id="path13203-3"
   inkscape:connector-curvature="0" /><path
   style="fill:none;stroke:#000000;stroke-width:0.80000001px;stroke-linecap:butt;stroke-linejoin:miter;stroke-opacity:1"
   d="m 228,360 -9,4.5 9,4.5"
   id="path13203-7"
   inkscape:connector-curvature="0" /><path
   style="fill:none;stroke:#64007d;stroke-width:0.80000001px;stroke-linecap:butt;stroke-linejoin:miter;stroke-opacity:1"
   d="m 237,571.5 -9,4.5 9,4.5"
   id="path13203-3-9"
   inkscape:connector-curvature="0" /><path
   style="fill:none;stroke:#64007d;stroke-width:0.80000001px;stroke-linecap:butt;stroke-linejoin:miter;stroke-opacity:1"
   d="m 237.00001,441 -9,4.5 9,4.5"
   id="path13203-3-5"
   inkscape:connector-curvature="0" /><path
   style="fill:none;stroke:#64007d;stroke-width:0.80000001px;stroke-linecap:butt;stroke-linejoin:miter;stroke-opacity:1"
   d="m 237,261 -9,4.5 9,4.5"
   id="path13203-3-6"
   inkscape:connector-curvature="0" />






































































































































































<text
   sodipodi:linespacing="125%"
   id="text11159-91-3"
   y="25.499519"
   x="526.49951"
   style="font-size:12.80000019px;font-style:normal;font-weight:normal;text-align:center;line-height:125%;letter-spacing:0px;word-spacing:0px;text-anchor:middle;fill:#0064ff;fill-opacity:1;stroke:none;font-family:Sans"
   xml:space="preserve"
   transform="matrix(0,1,1,0,0,0)"><tspan
     id="tspan11406-1"
     y="25.499519"
     x="526.49951"
     sodipodi:role="line"
     style="font-size:12.80000019px;fill:#0064ff;fill-opacity:1;stroke:none">Data Interface</tspan></text>








<text
   sodipodi:linespacing="125%"
   id="text11159-91-3-9"
   y="25.5"
   x="300.40012"
   style="font-size:12.80000019px;font-style:normal;font-weight:normal;text-align:center;line-height:125%;letter-spacing:0px;word-spacing:0px;text-anchor:middle;fill:#0064ff;fill-opacity:1;stroke:none;font-family:Sans"
   xml:space="preserve"
   transform="matrix(0,1,1,0,0,0)"><tspan
     id="tspan11406-1-1"
     y="25.5"
     x="300.40012"
     sodipodi:role="line"
     style="font-size:12.80000019px;fill:#0064ff;fill-opacity:1;stroke:none">Instruction Interface</tspan></text>








<path
   d="m 30.00097,222.74976 4.49951,0 L 39,220.5 l -4.49952,-2.24975 -4.49951,0 0,4.49951 z"
   style="fill:#ffffff;fill-opacity:1;stroke:#000000;stroke-width:0.80000001;stroke-linecap:butt;stroke-linejoin:miter;stroke-miterlimit:1;stroke-opacity:1;stroke-dasharray:none"
   id="path1644-1-5-0-9-0-6"
   inkscape:connector-curvature="0" /><path
   d="m 39,236.25025 -4.49951,0 -4.49952,2.24976 4.49952,2.24975 4.49951,0 0,-4.49951 z"
   style="fill:#ffffff;fill-opacity:1;stroke:#000000;stroke-width:0.80000001;stroke-linecap:butt;stroke-linejoin:miter;stroke-miterlimit:1;stroke-opacity:1;stroke-dasharray:none"
   id="path1644-1-5-0-9-0-2"
   inkscape:connector-curvature="0" /><path
   d="m 38.99903,479.25024 -4.49951,0 L 30,481.5 l 4.49952,2.24975 4.49951,0 0,-4.49951 z"
   style="fill:#ffffff;fill-opacity:1;stroke:#000000;stroke-width:0.80000001;stroke-linecap:butt;stroke-linejoin:miter;stroke-miterlimit:1;stroke-opacity:1;stroke-dasharray:none"
   id="path1644-1-5-0-9-0-5-9"
   inkscape:connector-curvature="0" /><path
   d="m 38.99903,470.25024 -4.49951,0 L 30,472.5 l 4.49952,2.24975 4.49951,0 0,-4.49951 z"
   style="fill:#ffffff;fill-opacity:1;stroke:#000000;stroke-width:0.80000001;stroke-linecap:butt;stroke-linejoin:miter;stroke-miterlimit:1;stroke-opacity:1;stroke-dasharray:none"
   id="path1644-1-5-0-9-0-5-1"
   inkscape:connector-curvature="0" /><path
   d="m 30.00097,596.24976 4.49951,0 L 39,594 l -4.49952,-2.24975 -4.49951,0 0,4.49951 z"
   style="fill:#ffffff;fill-opacity:1;stroke:#000000;stroke-width:0.80000001;stroke-linecap:butt;stroke-linejoin:miter;stroke-miterlimit:1;stroke-opacity:1;stroke-dasharray:none"
   id="path1644-1-5-0-9-0-5-7"
   inkscape:connector-curvature="0" /><path
   style="fill:none;stroke:#000000;stroke-width:0.80000001px;stroke-linecap:butt;stroke-linejoin:miter;stroke-opacity:1;marker-start:url(#DotM);marker-end:url(#Arrow1Mend)"
   d="m 146.99999,594 49.5,0 1e-5,9"
   id="path19785"
   inkscape:connector-curvature="0"
   sodipodi:nodetypes="ccc" />























<text
   sodipodi:linespacing="125%"
   id="text11159-91-7"
   y="160.59991"
   x="265.5"
   style="font-size:9.60000038px;font-style:normal;font-weight:normal;text-align:center;line-height:125%;letter-spacing:0px;word-spacing:0px;text-anchor:middle;fill:#64007d;fill-opacity:1;stroke:none;font-family:Sans"
   xml:space="preserve"
   transform="matrix(0,1,1,0,0,0)"><tspan
     id="tspan11406-4"
     y="160.59991"
     x="265.5"
     sodipodi:role="line"
     style="font-size:9.60000038px;fill:#64007d;fill-opacity:1;stroke:none">IF</tspan><tspan
     y="172.59991"
     x="265.5"
     sodipodi:role="line"
     style="font-size:9.60000038px;fill:#64007d;fill-opacity:1;stroke:none"
     id="tspan20230">ID</tspan></text>








<text
   sodipodi:linespacing="125%"
   id="text11159-91-7-3"
   y="160.59988"
   x="445.5"
   style="font-size:9.60000038px;font-style:normal;font-weight:normal;text-align:center;line-height:125%;letter-spacing:0px;word-spacing:0px;text-anchor:middle;fill:#64007d;fill-opacity:1;stroke:none;font-family:Sans"
   xml:space="preserve"
   transform="matrix(0,1,1,0,0,0)"><tspan
     id="tspan11406-4-8"
     y="160.59988"
     x="445.5"
     sodipodi:role="line"
     style="font-size:9.60000038px;fill:#64007d;fill-opacity:1;stroke:none">ID</tspan><tspan
     y="172.59988"
     x="445.5"
     sodipodi:role="line"
     style="font-size:9.60000038px;fill:#64007d;fill-opacity:1;stroke:none"
     id="tspan20230-7">EX</tspan></text>








<text
   xml:space="preserve"
   style="font-size:8px;font-style:normal;font-weight:normal;line-height:125%;letter-spacing:0px;word-spacing:0px;fill:#000000;fill-opacity:1;stroke:none;font-family:Sans"
   x="225"
   y="147"
   id="text18110-7-6-3-6-0-2-1-8"
   sodipodi:linespacing="125%"
   transform="matrix(0,1,1,0,0,0)"><tspan
     sodipodi:role="line"
     id="tspan18112-0-8-3-9-4-6-9-4"
     x="225"
     y="147">Instr_i</tspan></text>








<text
   xml:space="preserve"
   style="font-size:8px;font-style:normal;font-weight:normal;line-height:125%;letter-spacing:0px;word-spacing:0px;fill:#000000;fill-opacity:1;stroke:none;font-family:Sans"
   x="598.5"
   y="57"
   id="text18110-7-6-3-6-0-2-1-0"
   sodipodi:linespacing="125%"
   transform="matrix(0,1,1,0,0,0)"><tspan
     sodipodi:role="line"
     id="tspan18112-0-8-3-9-4-6-9-0"
     x="598.5"
     y="57">rdata_i</tspan></text>








<text
   xml:space="preserve"
   style="font-size:8px;font-style:normal;font-weight:normal;line-height:125%;letter-spacing:0px;word-spacing:0px;fill:#000000;fill-opacity:1;stroke:none;font-family:Sans"
   x="436.5"
   y="57"
   id="text18110-7-6-3-6-0-2-1-86"
   sodipodi:linespacing="125%"
   transform="matrix(0,1,1,0,0,0)"><tspan
     sodipodi:role="line"
     id="tspan18112-0-8-3-9-4-6-9-8"
     x="436.5"
     y="57">wdata_o</tspan></text>








<text
   xml:space="preserve"
   style="font-size:8px;font-style:normal;font-weight:normal;line-height:125%;letter-spacing:0px;word-spacing:0px;fill:#000000;fill-opacity:1;stroke:none;font-family:Sans"
   x="486"
   y="57"
   id="text18110-7-6-3-6-0-2-1-2"
   sodipodi:linespacing="125%"
   transform="matrix(0,1,1,0,0,0)"><tspan
     sodipodi:role="line"
     id="tspan18112-0-8-3-9-4-6-9-3"
     x="486"
     y="57">addr_o</tspan></text>








<text
   sodipodi:linespacing="125%"
   id="text11159-91-7-9"
   y="160.49998"
   x="576"
   style="font-size:9.60000038px;font-style:normal;font-weight:normal;text-align:center;line-height:125%;letter-spacing:0px;word-spacing:0px;text-anchor:middle;fill:#64007d;fill-opacity:1;stroke:none;font-family:Sans"
   xml:space="preserve"
   transform="matrix(0,1,1,0,0,0)"><tspan
     id="tspan11406-4-3"
     y="160.49998"
     x="576"
     sodipodi:role="line"
     style="font-size:9.60000038px;fill:#64007d;fill-opacity:1;stroke:none">EX</tspan><tspan
     y="172.49998"
     x="576"
     sodipodi:role="line"
     style="font-size:9.60000038px;fill:#64007d;fill-opacity:1;stroke:none"
     id="tspan20230-8">WB</tspan></text>
















<text
   xml:space="preserve"
   style="font-size:9.60000038px;font-style:normal;font-weight:normal;line-height:125%;letter-spacing:0px;word-spacing:0px;fill:#000000;fill-opacity:1;stroke:none;font-family:Sans"
   x="94.189056"
   y="-619.64221"
   id="text20395-8"
   sodipodi:linespacing="125%"
   transform="scale(1,-1)"><tspan
     sodipodi:role="line"
     id="tspan20397-5"
     x="94.189056"
     y="-619.64221">WB Sel</tspan></text>






















































































































































<text
   xml:space="preserve"
   style="font-size:20px;font-style:normal;font-weight:normal;line-height:125%;letter-spacing:0px;word-spacing:0px;fill:#000000;fill-opacity:1;stroke:none;font-family:Sans"
   x="778.5246"
   y="145.05324"
   id="text4467"
   sodipodi:linespacing="125%"
   transform="matrix(0,0.8,0.8,0,-34,0)"><tspan
     sodipodi:role="line"
     id="tspan4469"
     x="778.5246"
     y="145.05324" /></text>




<text
   sodipodi:linespacing="125%"
   id="text11159-9-7"
   y="59.899994"
   x="531"
   style="font-size:12.80000019px;font-style:normal;font-weight:normal;line-height:125%;letter-spacing:0px;word-spacing:0px;fill:#000000;fill-opacity:1;stroke:none;font-family:Sans"
   xml:space="preserve"
   transform="matrix(0,1,1,0,0,0)"><tspan
     y="59.899994"
     x="531"
     id="tspan11161-4-4"
     sodipodi:role="line"
     style="stroke:none">LSU</tspan></text>




<rect
   ry="6.5999999"
   y="48"
   x="459"
   height="13.5"
   width="148.5"
   id="rect10624-5-5"
   style="opacity:0.56147539;fill:none;stroke:#007dff;stroke-width:1.60000002;stroke-linejoin:round;stroke-miterlimit:4;stroke-opacity:1;stroke-dasharray:none;stroke-dashoffset:0"
   transform="matrix(0,1,1,0,0,0)" /><path
   style="fill:none;stroke:#000000;stroke-width:0.80000001;stroke-linecap:butt;stroke-linejoin:miter;stroke-miterlimit:4;stroke-opacity:1;stroke-dasharray:1.6, 1.6;stroke-dashoffset:0"
   d="m 48,594 13.5,0"
   id="path4532"
   inkscape:connector-curvature="0" /><path
   style="fill:none;stroke:#000000;stroke-width:0.80000001;stroke-linecap:butt;stroke-linejoin:miter;stroke-miterlimit:4;stroke-opacity:1;stroke-dasharray:1.6, 1.6;stroke-dashoffset:0"
   d="m 48,481.5 13.5,0"
   id="path4532-5"
   inkscape:connector-curvature="0" /><path
   style="fill:none;stroke:#000000;stroke-width:0.80000001;stroke-linecap:butt;stroke-linejoin:miter;stroke-miterlimit:4;stroke-opacity:1;stroke-dasharray:1.6, 1.6;stroke-dashoffset:0"
   d="m 48,472.5 13.5,0"
   id="path4532-2"
   inkscape:connector-curvature="0" />



<path
   style="fill:none;stroke:#000000;stroke-width:0.80000001px;stroke-linecap:butt;stroke-linejoin:miter;stroke-opacity:1"
   d="m 39,238.5 18,0"
   id="path3924"
   inkscape:connector-curvature="0"
   sodipodi:nodetypes="cc" /><rect
   ry="9.000001"
   y="57"
   x="229.5"
   height="36"
   width="54"
   id="rect10624-5-4"
   style="opacity:0.56147539;fill:none;stroke:#007dff;stroke-width:1.60000002;stroke-linejoin:round;stroke-miterlimit:4;stroke-opacity:1;stroke-dasharray:none;stroke-dashoffset:0"
   transform="matrix(0,1,1,0,0,0)" /><text
   sodipodi:linespacing="125%"
   id="text11159-9-9"
   y="70.5"
   x="234"
   style="font-size:12.80000019px;font-style:normal;font-weight:normal;line-height:125%;letter-spacing:0px;word-spacing:0px;fill:#000000;fill-opacity:1;stroke:none;font-family:Sans"
   xml:space="preserve"
   transform="matrix(0,1,1,0,0,0)"><tspan
     y="70.5"
     x="234"
     id="tspan11161-4-3"
     sodipodi:role="line"
     style="stroke:none">PC</tspan><tspan
     y="86.5"
     x="234"
     sodipodi:role="line"
     style="stroke:none"
     id="tspan3950">update</tspan></text>
<path
   style="fill:none;stroke:#000000;stroke-width:0.80000001px;stroke-linecap:butt;stroke-linejoin:miter;stroke-opacity:1;marker-end:url(#Arrow1Mend)"
   d="m 39,220.5 112.5,0 0,36"
   id="path3952"
   inkscape:connector-curvature="0"
   sodipodi:nodetypes="ccc" /><rect
   ry="9.000001"
   y="93"
   x="315"
   height="36"
   width="76.5"
   id="rect10624-5-4-9"
   style="opacity:0.56147539;fill:none;stroke:#007dff;stroke-width:1.60000002;stroke-linejoin:round;stroke-miterlimit:4;stroke-opacity:1;stroke-dasharray:none;stroke-dashoffset:0"
   transform="matrix(0,1,1,0,0,0)" /><text
   sodipodi:linespacing="125%"
   id="text11159-9-9-7"
   y="106.5"
   x="319.5"
   style="font-size:12.80000019px;font-style:normal;font-weight:normal;line-height:125%;letter-spacing:0px;word-spacing:0px;fill:#000000;fill-opacity:1;stroke:none;font-family:Sans"
   xml:space="preserve"
   transform="matrix(0,1,1,0,0,0)"><tspan
     y="106.5"
     x="319.5"
     id="tspan11161-4-3-8"
     sodipodi:role="line"
     style="stroke:none">Instruction</tspan><tspan
     y="122.5"
     x="319.5"
     sodipodi:role="line"
     style="stroke:none"
     id="tspan3950-2">decoder</tspan></text>
<path
   style="fill:none;stroke:#000000;stroke-width:0.80000001px;stroke-linecap:butt;stroke-linejoin:miter;stroke-opacity:1;marker-end:url(#Arrow1Mend)"
   d="m 111,454.5 0,22.5"
   id="path3985"
   inkscape:connector-curvature="0" /><path
   style="fill:none;stroke:#000000;stroke-width:0.80000001px;stroke-linecap:butt;stroke-linejoin:miter;stroke-opacity:1;marker-end:url(#Arrow1Mend)"
   d="m 120,454.5 0,22.5"
   id="path3987"
   inkscape:connector-curvature="0" /><path
   style="fill:none;stroke:#000000;stroke-width:0.80000001px;stroke-linecap:butt;stroke-linejoin:miter;stroke-opacity:1;marker-end:url(#Arrow1Mend)"
   d="m 165,454.5 c 0,4.5 0,22.5 0,22.5"
   id="path3989"
   inkscape:connector-curvature="0" /><path
   style="fill:none;stroke:#000000;stroke-width:0.80000001px;stroke-linecap:butt;stroke-linejoin:miter;stroke-opacity:1;marker-end:url(#Arrow1Mend)"
   d="m 174,454.5 0,22.5"
   id="path3991"
   inkscape:connector-curvature="0"
   sodipodi:nodetypes="cc" /><path
   style="fill:none;stroke:#000000;stroke-width:0.80000001px;stroke-linecap:butt;stroke-linejoin:miter;stroke-opacity:1;marker-end:url(#Arrow1Mend)"
   d="m 115.5,526.5 0,40.5"
   id="path3993"
   inkscape:connector-curvature="0"
   sodipodi:nodetypes="cc" /><path
   style="fill:none;stroke:#000000;stroke-width:0.80000001px;stroke-linecap:butt;stroke-linejoin:miter;stroke-opacity:1;marker-end:url(#Arrow1Mend)"
   d="m 169.5,531 0,36"
   id="path3995"
   inkscape:connector-curvature="0"
   sodipodi:nodetypes="cc" /><path
   style="fill:none;stroke:#000000;stroke-width:1px;stroke-linecap:butt;stroke-linejoin:miter;stroke-opacity:1"
   d="m 568.125,147.5 22.5,0 0,-28.125"
   id="path3997"
   inkscape:connector-curvature="0"
   transform="matrix(0,0.8,0.8,0,-34,0)"
   sodipodi:nodetypes="ccc" /><path
   style="fill:none;stroke:#000000;stroke-width:0.80000001px;stroke-linecap:butt;stroke-linejoin:miter;stroke-opacity:1;marker-end:url(#Arrow1Mend)"
   d="m 93,373.5 -18,0 0,-90"
   id="path3999"
   inkscape:connector-curvature="0"
   sodipodi:nodetypes="ccc" /><path
   style="fill:none;stroke:#000000;stroke-width:0.80000001px;stroke-linecap:butt;stroke-linejoin:miter;stroke-opacity:1;marker-end:url(#Arrow1Mend)"
   d="m 129,328.5 36,0 0,9"
   id="path4001"
   inkscape:connector-curvature="0"
   sodipodi:nodetypes="ccc" /><path
   style="fill:none;stroke:#000000;stroke-width:0.80000001px;stroke-linecap:butt;stroke-linejoin:miter;stroke-opacity:1;marker-end:url(#Arrow1Mend)"
   d="m 129,319.5 49.5,0 0,18"
   id="path4003"
   inkscape:connector-curvature="0"
   sodipodi:nodetypes="ccc" /><path
   style="fill:none;stroke:#000000;stroke-width:0.80000001px;stroke-linecap:butt;stroke-linejoin:miter;stroke-opacity:1;marker-end:url(#Arrow1Mend)"
   d="m 160.5,387 0,22.5 -58.5,0 0,27"
   id="path4005"
   inkscape:connector-curvature="0"
   sodipodi:nodetypes="cccc" /><path
   style="fill:none;stroke:#000000;stroke-width:0.80000001px;stroke-linecap:butt;stroke-linejoin:miter;stroke-opacity:1;marker-end:url(#Arrow1Mend)"
   d="m 178.5,387 0,31.5 -58.5,0 0,18"
   id="path4007"
   inkscape:connector-curvature="0"
   sodipodi:nodetypes="cccc" /><path
   style="fill:none;stroke:#000000;stroke-width:0.80000001px;stroke-linecap:butt;stroke-linejoin:miter;stroke-opacity:1;marker-end:url(#Arrow1Mend)"
   d="m 111,630 0,22.5 130.5,0 0,-342 -27,0 0,27"
   id="path4009"
   inkscape:connector-curvature="0"
   sodipodi:nodetypes="cccccc" /><path
   style="fill:none;stroke:#000000;stroke-width:0.80000001px;stroke-linecap:butt;stroke-linejoin:miter;stroke-opacity:1"
   d="m 48,472.5 -9,0"
   id="path5671"
   inkscape:connector-curvature="0" /><path
   style="fill:none;stroke:#000000;stroke-width:0.80000001px;stroke-linecap:butt;stroke-linejoin:miter;stroke-opacity:1;marker-end:url(#Arrow1Mend)"
   d="m 120,274.5 0,40.5"
   id="path5673"
   inkscape:connector-curvature="0" /><text
   xml:space="preserve"
   style="font-size:8px;font-style:normal;font-weight:normal;line-height:125%;letter-spacing:0px;word-spacing:0px;fill:#000000;fill-opacity:1;stroke:none;font-family:Sans"
   x="238.5"
   y="52.5"
   id="text18110-7-6-3-6-0-2-1-86-6"
   sodipodi:linespacing="125%"
   transform="matrix(0,1,1,0,0,0)"><tspan
     sodipodi:role="line"
     id="tspan18112-0-8-3-9-4-6-9-8-8"
     x="238.5"
     y="52.5">instr_addr_o</tspan></text>
</g></svg>