<?xml version="1.0" encoding="UTF-8" standalone="no"?>
<!-- Created with Inkscape (http://www.inkscape.org/) -->

<svg
   xmlns:osb="http://www.openswatchbook.org/uri/2009/osb"
   xmlns:dc="http://purl.org/dc/elements/1.1/"
   xmlns:cc="http://creativecommons.org/ns#"
   xmlns:rdf="http://www.w3.org/1999/02/22-rdf-syntax-ns#"
   xmlns:svg="http://www.w3.org/2000/svg"
   xmlns="http://www.w3.org/2000/svg"
   xmlns:xlink="http://www.w3.org/1999/xlink"
   xmlns:sodipodi="http://sodipodi.sourceforge.net/DTD/sodipodi-0.dtd"
   xmlns:inkscape="http://www.inkscape.org/namespaces/inkscape"
   id="svg2"
   version="1.1"
   inkscape:version="0.48.2 r9819"
   width="1961.25"
   height="1328.75"
   xml:space="preserve"
   sodipodi:docname="data_interface.svg"
   inkscape:export-filename="/home/gmichi/instr_intf.png"
   inkscape:export-xdpi="200"
   inkscape:export-ydpi="200"><metadata
     id="metadata8"><rdf:RDF><cc:Work
         rdf:about=""><dc:format>image/svg+xml</dc:format><dc:type
           rdf:resource="http://purl.org/dc/dcmitype/StillImage" /><dc:title></dc:title></cc:Work></rdf:RDF></metadata><defs
     id="defs6"><marker
   inkscape:stockid="DotM"
   orient="auto"
   refY="0.0"
   refX="0.0"
   id="DotM"
   style="overflow:visible"><path
     id="path13484"
     d="M -2.5,-1.0 C -2.5,1.7600000 -4.7400000,4.0 -7.5,4.0 C -10.260000,4.0 -12.5,1.7600000 -12.5,-1.0 C -12.5,-3.7600000 -10.260000,-6.0 -7.5,-6.0 C -4.7400000,-6.0 -2.5,-3.7600000 -2.5,-1.0 z "
     style="fill-rule:evenodd;stroke:#000000;stroke-width:1.0pt;marker-start:none;marker-end:none"
     transform="scale(0.4) translate(7.4, 1)" /></marker><marker
   inkscape:stockid="DotS"
   orient="auto"
   refY="0.0"
   refX="0.0"
   id="DotS"
   style="overflow:visible"><path
     id="path13487"
     d="M -2.5,-1.0 C -2.5,1.7600000 -4.7400000,4.0 -7.5,4.0 C -10.260000,4.0 -12.5,1.7600000 -12.5,-1.0 C -12.5,-3.7600000 -10.260000,-6.0 -7.5,-6.0 C -4.7400000,-6.0 -2.5,-3.7600000 -2.5,-1.0 z "
     style="fill-rule:evenodd;stroke:#000000;stroke-width:1.0pt;marker-start:none;marker-end:none"
     transform="scale(0.2) translate(7.4, 1)" /></marker><linearGradient
   id="linearGradient13151"
   osb:paint="solid"><stop
     style="stop-color:#ffffff;stop-opacity:1;"
     offset="0"
     id="stop13153" /></linearGradient><linearGradient
   id="linearGradient13145"
   osb:paint="solid"><stop
     style="stop-color:#540000;stop-opacity:1;"
     offset="0"
     id="stop13147" /></linearGradient>




<linearGradient
   inkscape:collect="always"
   xlink:href="#linearGradient13151"
   id="linearGradient13155"
   x1="398.6"
   y1="549"
   x2="403.89951"
   y2="549"
   gradientUnits="userSpaceOnUse" /><marker
   inkscape:stockid="DotM"
   orient="auto"
   refY="0"
   refX="0"
   id="DotM-0"
   style="overflow:visible"><path
     inkscape:connector-curvature="0"
     id="path13484-5"
     d="m -2.5,-1 c 0,2.76 -2.24,5 -5,5 -2.76,0 -5,-2.24 -5,-5 0,-2.76 2.24,-5 5,-5 2.76,0 5,2.24 5,5 z"
     style="fill-rule:evenodd;stroke:#000000;stroke-width:1pt;marker-start:none;marker-end:none"
     transform="matrix(0.4,0,0,0.4,2.96,0.4)" /></marker><marker
   inkscape:stockid="DotM"
   orient="auto"
   refY="0"
   refX="0"
   id="marker20432"
   style="overflow:visible"><path
     inkscape:connector-curvature="0"
     id="path20434"
     d="m -2.5,-1 c 0,2.76 -2.24,5 -5,5 -2.76,0 -5,-2.24 -5,-5 0,-2.76 2.24,-5 5,-5 2.76,0 5,2.24 5,5 z"
     style="fill-rule:evenodd;stroke:#000000;stroke-width:1pt;marker-start:none;marker-end:none"
     transform="matrix(0.4,0,0,0.4,2.96,0.4)" /></marker><marker
   inkscape:stockid="DotM"
   orient="auto"
   refY="0"
   refX="0"
   id="marker20436"
   style="overflow:visible"><path
     inkscape:connector-curvature="0"
     id="path20438"
     d="m -2.5,-1 c 0,2.76 -2.24,5 -5,5 -2.76,0 -5,-2.24 -5,-5 0,-2.76 2.24,-5 5,-5 2.76,0 5,2.24 5,5 z"
     style="fill-rule:evenodd;stroke:#000000;stroke-width:1pt;marker-start:none;marker-end:none"
     transform="matrix(0.4,0,0,0.4,2.96,0.4)" /></marker><marker
   inkscape:stockid="DotM"
   orient="auto"
   refY="0"
   refX="0"
   id="DotM-5"
   style="overflow:visible"><path
     inkscape:connector-curvature="0"
     id="path13484-7"
     d="m -2.5,-1 c 0,2.76 -2.24,5 -5,5 -2.76,0 -5,-2.24 -5,-5 0,-2.76 2.24,-5 5,-5 2.76,0 5,2.24 5,5 z"
     style="fill-rule:evenodd;stroke:#000000;stroke-width:1pt;marker-start:none;marker-end:none"
     transform="matrix(0.4,0,0,0.4,2.96,0.4)" /></marker><marker
   inkscape:stockid="DotM"
   orient="auto"
   refY="0"
   refX="0"
   id="DotM-6"
   style="overflow:visible"><path
     inkscape:connector-curvature="0"
     id="path13484-72"
     d="m -2.5,-1 c 0,2.76 -2.24,5 -5,5 -2.76,0 -5,-2.24 -5,-5 0,-2.76 2.24,-5 5,-5 2.76,0 5,2.24 5,5 z"
     style="fill-rule:evenodd;stroke:#000000;stroke-width:1pt;marker-start:none;marker-end:none"
     transform="matrix(0.4,0,0,0.4,2.96,0.4)" /></marker></defs><sodipodi:namedview
     pagecolor="#ffffff"
     bordercolor="#666666"
     borderopacity="1"
     objecttolerance="10"
     gridtolerance="10"
     guidetolerance="10"
     inkscape:pageopacity="0"
     inkscape:pageshadow="2"
     inkscape:window-width="1920"
     inkscape:window-height="1124"
     id="namedview4"
     showgrid="true"
     units="pt"
     borderlayer="false"
     inkscape:zoom="2.0000001"
     inkscape:cx="639.95653"
     inkscape:cy="1157.9386"
     inkscape:window-x="0"
     inkscape:window-y="25"
     inkscape:window-maximized="1"
     inkscape:current-layer="g10"><inkscape:grid
       empspacing="5"
       visible="true"
       enabled="true"
       snapvisiblegridlinesonly="true"
       units="pt"
       spacingx="0.9pt"
       spacingy="0.9pt"
       type="xygrid"
       id="grid5223" /></sodipodi:namedview><g
     id="g10"
     inkscape:groupmode="layer"
     inkscape:label="ink_ext_XXXXXX"
     transform="matrix(0,1.25,1.25,0,0,42.5)">


























<path
   style="fill:none;stroke:#000000;stroke-width:1px;stroke-linecap:butt;stroke-linejoin:miter;stroke-opacity:1"
   d="m 798.75,243.125 -180,0 0,-84.375"
   id="path16556"
   inkscape:connector-curvature="0"
   transform="matrix(0,0.8,0.8,0,-34,0)" /><path
   style="fill:none;stroke:#000000;stroke-width:0.80000001px;stroke-linecap:butt;stroke-linejoin:miter;stroke-opacity:1"
   d="m 129,559.8 -9,0"
   id="path16530"
   inkscape:connector-curvature="0"
   sodipodi:nodetypes="cc" /><path
   style="fill:none;stroke:#000000;stroke-width:0.80000001px;stroke-linecap:butt;stroke-linejoin:miter;stroke-opacity:1"
   d="m 133.5,561.6 13.5,0 0,77.4"
   id="path16504"
   inkscape:connector-curvature="0"
   sodipodi:nodetypes="ccc" /><path
   style="fill:none;stroke:#000000;stroke-width:1px;stroke-linecap:butt;stroke-linejoin:miter;stroke-opacity:1"
   d="m 556.875,186.875 22.5,0 0,-22.5"
   id="path16239"
   inkscape:connector-curvature="0"
   transform="matrix(0,0.8,0.8,0,-34,0)"
   sodipodi:nodetypes="ccc" /><path
   style="fill:none;stroke:#000000;stroke-width:1px;stroke-linecap:butt;stroke-linejoin:miter;stroke-opacity:1"
   d="m 556.875,175.625 11.25,0 0,-11.25"
   id="path16237"
   inkscape:connector-curvature="0"
   transform="matrix(0,0.8,0.8,0,-34,0)" /><path
   style="fill:none;stroke:#000000;stroke-width:1px;stroke-linecap:butt;stroke-linejoin:miter;stroke-opacity:1"
   d="m 568.125,113.75 0,28.125"
   id="path16169"
   inkscape:connector-curvature="0"
   transform="matrix(0,0.8,0.8,0,-34,0)" /><path
   style="fill:none;stroke:#000000;stroke-width:0.80000001px;stroke-linecap:butt;stroke-linejoin:miter;stroke-opacity:1"
   d="m 79.5,463.5 -22.5,0"
   id="path16972-27-8"
   inkscape:connector-curvature="0"
   sodipodi:nodetypes="cc" /><path
   style="fill:none;stroke:#000000;stroke-width:0.80000001px;stroke-linecap:butt;stroke-linejoin:miter;stroke-opacity:1"
   d="m 79.5,472.5 -22.5,0"
   id="path16972-27-4"
   inkscape:connector-curvature="0"
   sodipodi:nodetypes="cc" /><rect
   style="fill:none;stroke:#0064ff;stroke-width:1.60000002;stroke-linejoin:round;stroke-miterlimit:1;stroke-opacity:1;stroke-dasharray:none;stroke-dashoffset:0"
   id="rect17534"
   width="171"
   height="22.5"
   x="440.99951"
   y="-1.5004801"
   transform="matrix(0,1,1,0,0,0)"
   ry="4.5"
   rx="4.5" />











































































































































<text
   sodipodi:linespacing="125%"
   id="text11159-91-3"
   y="11.999519"
   x="526.49951"
   style="font-size:12.80000019px;font-style:normal;font-weight:normal;text-align:center;line-height:125%;letter-spacing:0px;word-spacing:0px;text-anchor:middle;fill:#0064ff;fill-opacity:1;stroke:none;font-family:Sans"
   xml:space="preserve"
   transform="matrix(0,1,1,0,0,0)"><tspan
     id="tspan11406-1"
     y="11.999519"
     x="526.49951"
     sodipodi:role="line"
     style="font-size:12.80000019px;fill:#0064ff;fill-opacity:1;stroke:none">TCDM - Log Interconnect</tspan></text>















































































































































<text
   xml:space="preserve"
   style="font-size:20px;font-style:normal;font-weight:normal;line-height:125%;letter-spacing:0px;word-spacing:0px;fill:#000000;fill-opacity:1;stroke:none;font-family:Sans"
   x="778.5246"
   y="145.05324"
   id="text4467"
   sodipodi:linespacing="125%"
   transform="matrix(0,0.8,0.8,0,-34,0)"><tspan
     sodipodi:role="line"
     id="tspan4469"
     x="778.5246"
     y="145.05324" /></text>


<rect
   ry="6.5999999"
   y="52.5"
   x="441"
   height="130.5"
   width="198"
   id="rect10624-5-5"
   style="fill:none;stroke:#007dff;stroke-width:0.80000001;stroke-linejoin:round;stroke-miterlimit:4;stroke-opacity:1;stroke-dasharray:none;stroke-dashoffset:0"
   transform="matrix(0,1,1,0,0,0)" />
<g
   id="g16164"
   transform="translate(-13.5,0)"><path
     d="m 202.5,175.625 a 33.75,16.875 0 1 1 -67.5,0 33.75,16.875 0 1 1 67.5,0 z"
     sodipodi:ry="16.875"
     sodipodi:rx="33.75"
     sodipodi:cy="175.625"
     sodipodi:cx="168.75"
     id="path14383"
     style="fill:#ffffff;fill-opacity:1;fill-rule:evenodd;stroke:#000000;stroke-width:1;stroke-linecap:square;stroke-linejoin:miter;stroke-miterlimit:4;stroke-opacity:1;stroke-dasharray:none;stroke-dashoffset:0"
     sodipodi:type="arc"
     transform="matrix(0,0.8,0.8,0,-38.5,337.5)" /><text
     transform="matrix(0,1,1,0,0,0)"
     sodipodi:linespacing="125%"
     id="text14385"
     y="106.5"
     x="454.5"
     style="font-size:16px;font-style:normal;font-weight:normal;line-height:125%;letter-spacing:0px;word-spacing:0px;fill:#000000;fill-opacity:1;stroke:none;font-family:Sans"
     xml:space="preserve"><tspan
       y="106.5"
       x="454.5"
       id="tspan14387"
       sodipodi:role="line">FSM</tspan></text>
</g><path
   style="fill:none;stroke:#000000;stroke-width:0.80000001px;stroke-linecap:butt;stroke-linejoin:miter;stroke-opacity:1"
   d="m 48,454.50001 -27,0"
   id="path16972"
   inkscape:connector-curvature="0"
   sodipodi:nodetypes="cc" /><path
   style="fill:none;stroke:#000000;stroke-width:0.80000001px;stroke-linecap:butt;stroke-linejoin:miter;stroke-opacity:1"
   d="m 21,463.50049 27,0"
   id="path17346"
   inkscape:connector-curvature="0"
   sodipodi:nodetypes="cc" /><path
   d="m 25.5,465.75025 -4.49951,0 -4.49952,-2.24976 4.49952,-2.24975 4.49951,0 0,4.49951 z"
   style="fill:#ffffff;fill-opacity:1;stroke:#000000;stroke-width:0.80000001;stroke-linecap:butt;stroke-linejoin:miter;stroke-miterlimit:1;stroke-opacity:1;stroke-dasharray:none"
   id="path1644-1-5-0-9-0-6"
   inkscape:connector-curvature="0" /><path
   d="m 25.5,456.74976 -4.49951,0 -4.49952,-2.24976 4.49952,-2.24975 4.49951,0 0,4.49951 z"
   style="fill:#ffffff;fill-opacity:1;stroke:#000000;stroke-width:0.80000001;stroke-linecap:butt;stroke-linejoin:miter;stroke-miterlimit:1;stroke-opacity:1;stroke-dasharray:none"
   id="path1644-1-5-0-9-0-2"
   inkscape:connector-curvature="0" /><text
   xml:space="preserve"
   style="font-size:8px;font-style:normal;font-weight:normal;line-height:125%;letter-spacing:0px;word-spacing:0px;fill:#000000;fill-opacity:1;stroke:none;font-family:Sans"
   x="409.5"
   y="30.000038"
   id="text18110-7-6-3-6-0-2-13-7"
   sodipodi:linespacing="125%"
   transform="matrix(0,1,1,0,0,0)"><tspan
     sodipodi:role="line"
     id="tspan18112-0-8-3-9-4-6-8-4"
     x="409.5"
     y="30.000038">data_addr</tspan></text>
<text
   xml:space="preserve"
   style="font-size:8px;font-style:normal;font-weight:normal;line-height:125%;letter-spacing:0px;word-spacing:0px;fill:#000000;fill-opacity:1;stroke:none;font-family:Sans"
   x="409.5"
   y="39.000038"
   id="text18110-7-6-3-6-0-2-13-7-7"
   sodipodi:linespacing="125%"
   transform="matrix(0,1,1,0,0,0)"><tspan
     sodipodi:role="line"
     id="tspan18112-0-8-3-9-4-6-8-4-9"
     x="409.5"
     y="39.000038">data_req</tspan></text>
<path
   style="fill:none;stroke:#000000;stroke-width:0.80000001px;stroke-linecap:butt;stroke-linejoin:miter;stroke-opacity:1"
   d="M 48,472.50049 21.00002,472.5"
   id="path16972-2"
   inkscape:connector-curvature="0"
   sodipodi:nodetypes="cc" /><path
   style="fill:none;stroke:#000000;stroke-width:0.80000001px;stroke-linecap:butt;stroke-linejoin:miter;stroke-opacity:1"
   d="m 48,504 -22.5,0"
   id="path16972-1"
   inkscape:connector-curvature="0"
   sodipodi:nodetypes="cc" /><path
   d="m 16.50098,470.25025 4.49951,0 4.49952,2.24976 -4.49952,2.24975 -4.49951,0 0,-4.49951 z"
   style="fill:#ffffff;fill-opacity:1;stroke:#000000;stroke-width:0.80000001;stroke-linecap:butt;stroke-linejoin:miter;stroke-miterlimit:1;stroke-opacity:1;stroke-dasharray:none"
   id="path1644-1-5-0-9-0-2-7-8"
   inkscape:connector-curvature="0" /><text
   xml:space="preserve"
   style="font-size:16px;font-style:normal;font-weight:normal;line-height:125%;letter-spacing:0px;word-spacing:0px;fill:#000000;fill-opacity:1;stroke:none;font-family:Sans"
   x="459"
   y="178.5"
   id="text13997"
   sodipodi:linespacing="125%"
   transform="matrix(0,1,1,0,0,0)"><tspan
     sodipodi:role="line"
     id="tspan13999"
     x="459"
     y="178.5">Load/Store Interface</tspan></text>
<text
   xml:space="preserve"
   style="font-size:8px;font-style:normal;font-weight:normal;line-height:125%;letter-spacing:0px;word-spacing:0px;fill:#000000;fill-opacity:1;stroke:none;font-family:Sans"
   x="409.5"
   y="48"
   id="text18110-7-6-3-6-0-2-13-7-7-7"
   sodipodi:linespacing="125%"
   transform="matrix(0,1,1,0,0,0)"><tspan
     sodipodi:role="line"
     id="tspan18112-0-8-3-9-4-6-8-4-9-5"
     x="409.5"
     y="48">data_gnt</tspan></text>
<text
   xml:space="preserve"
   style="font-size:8px;font-style:normal;font-weight:normal;line-height:125%;letter-spacing:0px;word-spacing:0px;fill:#000000;fill-opacity:1;stroke:none;font-family:Sans"
   x="526.5"
   y="39"
   id="text18110-7-6-3-6-0-2-13-7-7-8"
   sodipodi:linespacing="125%"
   transform="matrix(0,1,1,0,0,0)"><tspan
     sodipodi:role="line"
     id="tspan18112-0-8-3-9-4-6-8-4-9-4"
     x="526.5"
     y="39">data_be</tspan></text>
<text
   xml:space="preserve"
   style="font-size:8px;font-style:normal;font-weight:normal;line-height:125%;letter-spacing:0px;word-spacing:0px;fill:#000000;fill-opacity:1;stroke:none;font-family:Sans"
   x="603"
   y="43.5"
   id="text18110-7-6-3-6-0-2-13-7-7-5"
   sodipodi:linespacing="125%"
   transform="matrix(0,1,1,0,0,0)"><tspan
     sodipodi:role="line"
     id="tspan18112-0-8-3-9-4-6-8-4-9-8"
     x="603"
     y="43.5">data_rdata</tspan></text>
<text
   xml:space="preserve"
   style="font-size:8px;font-style:normal;font-weight:normal;line-height:125%;letter-spacing:0px;word-spacing:0px;fill:#000000;fill-opacity:1;stroke:none;font-family:Sans"
   x="526.5"
   y="48"
   id="text18110-7-6-3-6-0-2-13-7-7-3"
   sodipodi:linespacing="125%"
   transform="matrix(0,1,1,0,0,0)"><tspan
     sodipodi:role="line"
     id="tspan18112-0-8-3-9-4-6-8-4-9-43"
     x="526.5"
     y="48">data_we</tspan></text>
<text
   xml:space="preserve"
   style="font-size:8px;font-style:normal;font-weight:normal;line-height:125%;letter-spacing:0px;word-spacing:0px;fill:#000000;fill-opacity:1;stroke:none;font-family:Sans"
   x="603"
   y="34.5"
   id="text18110-7-6-3-6-0-2-13-7-7-31"
   sodipodi:linespacing="125%"
   transform="matrix(0,1,1,0,0,0)"><tspan
     sodipodi:role="line"
     id="tspan18112-0-8-3-9-4-6-8-4-9-50"
     x="603"
     y="34.5">data_rvalid</tspan></text>
<text
   xml:space="preserve"
   style="font-size:8px;font-style:normal;font-weight:normal;line-height:125%;letter-spacing:0px;word-spacing:0px;fill:#000000;fill-opacity:1;stroke:none;font-family:Sans"
   x="526.5"
   y="30"
   id="text18110-7-6-3-6-0-2-13-7-7-2"
   sodipodi:linespacing="125%"
   transform="matrix(0,1,1,0,0,0)"><tspan
     sodipodi:role="line"
     id="tspan18112-0-8-3-9-4-6-8-4-9-7"
     x="526.5"
     y="30">data_wdata</tspan></text>
<path
   d="m 56.99999,465.75025 -4.49951,0 -4.49952,-2.24976 4.49952,-2.24975 4.49951,0 0,4.49951 z"
   style="fill:#ffffff;fill-opacity:1;stroke:#000000;stroke-width:0.80000001;stroke-linecap:butt;stroke-linejoin:miter;stroke-miterlimit:1;stroke-opacity:1;stroke-dasharray:none"
   id="path1644-1-5-0-9-0-6-9"
   inkscape:connector-curvature="0" /><path
   d="m 56.99999,456.74976 -4.49951,0 -4.49952,-2.24976 4.49952,-2.24975 4.49951,0 0,4.49951 z"
   style="fill:#ffffff;fill-opacity:1;stroke:#000000;stroke-width:0.80000001;stroke-linecap:butt;stroke-linejoin:miter;stroke-miterlimit:1;stroke-opacity:1;stroke-dasharray:none"
   id="path1644-1-5-0-9-0-2-4"
   inkscape:connector-curvature="0" /><path
   d="m 48.00097,470.25025 4.49951,0 4.49952,2.24976 -4.49952,2.24975 -4.49951,0 0,-4.49951 z"
   style="fill:#ffffff;fill-opacity:1;stroke:#000000;stroke-width:0.80000001;stroke-linecap:butt;stroke-linejoin:miter;stroke-miterlimit:1;stroke-opacity:1;stroke-dasharray:none"
   id="path1644-1-5-0-9-0-2-7-8-0"
   inkscape:connector-curvature="0" /><path
   d="m 25.49903,519.75025 -4.49951,0 -4.49952,2.24976 4.49952,2.24975 4.49951,0 0,-4.49951 z"
   style="fill:#ffffff;fill-opacity:1;stroke:#000000;stroke-width:0.80000001;stroke-linecap:butt;stroke-linejoin:miter;stroke-miterlimit:1;stroke-opacity:1;stroke-dasharray:none"
   id="path1644-1-5-0-9-0-2-7-7"
   inkscape:connector-curvature="0" /><path
   d="m 25.49904,501.75025 -4.49951,0 -4.49952,2.24976 4.49952,2.24975 4.49951,0 0,-4.49951 z"
   style="fill:#ffffff;fill-opacity:1;stroke:#000000;stroke-width:0.80000001;stroke-linecap:butt;stroke-linejoin:miter;stroke-miterlimit:1;stroke-opacity:1;stroke-dasharray:none"
   id="path1644-1-5-0-9-0-2-7-5-4"
   inkscape:connector-curvature="0" /><path
   d="m 25.49904,510.75025 -4.49951,0 -4.49952,2.24976 4.49952,2.24975 4.49951,0 0,-4.49951 z"
   style="fill:#ffffff;fill-opacity:1;stroke:#000000;stroke-width:0.80000001;stroke-linecap:butt;stroke-linejoin:miter;stroke-miterlimit:1;stroke-opacity:1;stroke-dasharray:none"
   id="path1644-1-5-0-9-0-2-7-5-1"
   inkscape:connector-curvature="0" /><path
   d="m 16.50098,582.75026 4.49951,0 4.49952,2.24976 -4.49952,2.24975 -4.49951,0 0,-4.49951 z"
   style="fill:#ffffff;fill-opacity:1;stroke:#000000;stroke-width:0.80000001;stroke-linecap:butt;stroke-linejoin:miter;stroke-miterlimit:1;stroke-opacity:1;stroke-dasharray:none"
   id="path1644-1-5-0-9-0-2-7-3"
   inkscape:connector-curvature="0" /><path
   d="m 16.50098,596.25025 4.49951,0 4.49952,2.24976 -4.49952,2.24975 -4.49951,0 0,-4.49951 z"
   style="fill:#ffffff;fill-opacity:1;stroke:#000000;stroke-width:0.80000001;stroke-linecap:butt;stroke-linejoin:miter;stroke-miterlimit:1;stroke-opacity:1;stroke-dasharray:none"
   id="path1644-1-5-0-9-0-2-7-5-6"
   inkscape:connector-curvature="0" /><path
   d="m 56.99902,519.75024 -4.49951,0 -4.49952,2.24976 4.49952,2.24975 4.49951,0 0,-4.49951 z"
   style="fill:#ffffff;fill-opacity:1;stroke:#000000;stroke-width:0.80000001;stroke-linecap:butt;stroke-linejoin:miter;stroke-miterlimit:1;stroke-opacity:1;stroke-dasharray:none"
   id="path1644-1-5-0-9-0-2-7-7-7"
   inkscape:connector-curvature="0" /><path
   d="m 56.99903,501.75024 -4.49951,0 L 48,504 l 4.49952,2.24975 4.49951,0 0,-4.49951 z"
   style="fill:#ffffff;fill-opacity:1;stroke:#000000;stroke-width:0.80000001;stroke-linecap:butt;stroke-linejoin:miter;stroke-miterlimit:1;stroke-opacity:1;stroke-dasharray:none"
   id="path1644-1-5-0-9-0-2-7-5-4-3"
   inkscape:connector-curvature="0" /><path
   d="m 56.99903,510.75024 -4.49951,0 L 48,513 l 4.49952,2.24975 4.49951,0 0,-4.49951 z"
   style="fill:#ffffff;fill-opacity:1;stroke:#000000;stroke-width:0.80000001;stroke-linecap:butt;stroke-linejoin:miter;stroke-miterlimit:1;stroke-opacity:1;stroke-dasharray:none"
   id="path1644-1-5-0-9-0-2-7-5-1-8"
   inkscape:connector-curvature="0" /><path
   d="m 48.00097,582.75025 4.49951,0 4.49952,2.24976 -4.49952,2.24975 -4.49951,0 0,-4.49951 z"
   style="fill:#ffffff;fill-opacity:1;stroke:#000000;stroke-width:0.80000001;stroke-linecap:butt;stroke-linejoin:miter;stroke-miterlimit:1;stroke-opacity:1;stroke-dasharray:none"
   id="path1644-1-5-0-9-0-2-7-3-1"
   inkscape:connector-curvature="0" /><path
   d="m 48.00097,596.25024 4.49951,0 L 57,598.5 l -4.49952,2.24975 -4.49951,0 0,-4.49951 z"
   style="fill:#ffffff;fill-opacity:1;stroke:#000000;stroke-width:0.80000001;stroke-linecap:butt;stroke-linejoin:miter;stroke-miterlimit:1;stroke-opacity:1;stroke-dasharray:none"
   id="path1644-1-5-0-9-0-2-7-5-6-4"
   inkscape:connector-curvature="0" /><path
   style="fill:none;stroke:#000000;stroke-width:0.80000001px;stroke-linecap:butt;stroke-linejoin:miter;stroke-opacity:1"
   d="m 48,513 -22.5,0"
   id="path16972-1-9"
   inkscape:connector-curvature="0"
   sodipodi:nodetypes="cc" /><path
   style="fill:none;stroke:#000000;stroke-width:0.80000001px;stroke-linecap:butt;stroke-linejoin:miter;stroke-opacity:1"
   d="m 48,522 -22.5,0"
   id="path16972-1-5"
   inkscape:connector-curvature="0"
   sodipodi:nodetypes="cc" /><path
   style="fill:none;stroke:#000000;stroke-width:0.80000001px;stroke-linecap:butt;stroke-linejoin:miter;stroke-opacity:1"
   d="m 48.00001,598.50001 -22.5,0"
   id="path16972-1-0"
   inkscape:connector-curvature="0"
   sodipodi:nodetypes="cc" /><path
   style="fill:none;stroke:#000000;stroke-width:0.80000001px;stroke-linecap:butt;stroke-linejoin:miter;stroke-opacity:1"
   d="m 48.00001,585.00001 -22.5,0"
   id="path16972-1-7"
   inkscape:connector-curvature="0"
   sodipodi:nodetypes="cc" /><text
   xml:space="preserve"
   style="font-size:8px;font-style:normal;font-weight:normal;line-height:125%;letter-spacing:0px;word-spacing:0px;fill:#000000;fill-opacity:1;stroke:none;font-family:Sans"
   x="576"
   y="145.39999"
   id="text18110-7-6-3-6-0-2-13-7-7-5-6"
   sodipodi:linespacing="125%"
   transform="matrix(0,1,1,0,0,0)"><tspan
     sodipodi:role="line"
     id="tspan18112-0-8-3-9-4-6-8-4-9-8-7"
     x="576"
     y="145.39999">misaligned_ex</tspan></text>
<text
   xml:space="preserve"
   style="font-size:8px;font-style:normal;font-weight:normal;line-height:125%;letter-spacing:0px;word-spacing:0px;fill:#000000;fill-opacity:1;stroke:none;font-family:Sans"
   x="396"
   y="148.60001"
   id="text18110-7-6-3-6-0-2-13-7-7-5-3"
   sodipodi:linespacing="125%"
   transform="matrix(0,1,1,0,0,0)"><tspan
     sodipodi:role="line"
     id="tspan18112-0-8-3-9-4-6-8-4-9-8-4"
     x="396"
     y="148.60001">we_ex</tspan></text>
<text
   xml:space="preserve"
   style="font-size:8px;font-style:normal;font-weight:normal;line-height:125%;letter-spacing:0px;word-spacing:0px;fill:#000000;fill-opacity:1;stroke:none;font-family:Sans"
   x="396"
   y="117.1"
   id="text18110-7-6-3-6-0-2-13-7-7-5-5"
   sodipodi:linespacing="125%"
   transform="matrix(0,1,1,0,0,0)"><tspan
     sodipodi:role="line"
     id="tspan18112-0-8-3-9-4-6-8-4-9-8-87"
     x="396"
     y="117.1">req_ex</tspan></text>
<text
   xml:space="preserve"
   style="font-size:8px;font-style:normal;font-weight:normal;line-height:125%;letter-spacing:0px;word-spacing:0px;fill:#000000;fill-opacity:1;stroke:none;font-family:Sans"
   x="616.5"
   y="111"
   id="text18110-7-6-3-6-0-2-13-7-7-5-5-7"
   sodipodi:linespacing="125%"
   transform="matrix(0,1,1,0,0,0)"><tspan
     sodipodi:role="line"
     id="tspan18112-0-8-3-9-4-6-8-4-9-8-87-9"
     x="616.5"
     y="111">rdata_wb</tspan></text>
<text
   xml:space="preserve"
   style="font-size:8px;font-style:normal;font-weight:normal;line-height:125%;letter-spacing:0px;word-spacing:0px;fill:#000000;fill-opacity:1;stroke:none;font-family:Sans"
   x="396"
   y="108.1"
   id="text18110-7-6-3-6-0-2-13-7-7-5-5-8"
   sodipodi:linespacing="125%"
   transform="matrix(0,1,1,0,0,0)"><tspan
     sodipodi:role="line"
     id="tspan18112-0-8-3-9-4-6-8-4-9-8-87-7"
     x="396"
     y="108.1">addr_ex</tspan></text>
<g
   id="g16171"
   transform="translate(-17.99988,-9)"><rect
     transform="matrix(0,1,1,0,0,0)"
     ry="9"
     rx="9"
     y="111"
     x="558"
     height="27"
     width="45"
     id="rect14296"
     style="fill:#ffffff;fill-opacity:0;fill-rule:evenodd;stroke:#000000;stroke-width:0.80000001;stroke-linecap:square;stroke-linejoin:miter;stroke-miterlimit:4;stroke-opacity:1;stroke-dasharray:none;stroke-dashoffset:0" /><text
     transform="matrix(0,1,1,0,0,0)"
     sodipodi:linespacing="125%"
     id="text14298"
     y="122.61906"
     x="569.18683"
     style="font-size:16px;font-style:normal;font-weight:normal;line-height:125%;letter-spacing:0px;word-spacing:0px;fill:#000000;fill-opacity:1;stroke:none;font-family:Sans"
     xml:space="preserve"><tspan
       style="font-size:9.60000038px"
       y="122.61906"
       x="569.18683"
       id="tspan14300"
       sodipodi:role="line">buffer</tspan></text>
<path
     d="m 137.99987,576.00001 -8.99999,4.49999 8.99999,4.5"
     style="fill:none;stroke:#000000;stroke-width:0.80000001;stroke-linecap:butt;stroke-linejoin:miter;stroke-miterlimit:1;stroke-opacity:1;stroke-dasharray:none"
     id="path450-9-8"
     inkscape:connector-curvature="0"
     sodipodi:nodetypes="ccc" /></g><path
   d="m 131.24926,436.50049 0,4.49951 -2.24976,4.49952 -2.24975,-4.49952 0,-4.49951 4.49951,0 z"
   style="fill:#ffffff;fill-opacity:1;stroke:#000000;stroke-width:0.80000001;stroke-linecap:butt;stroke-linejoin:miter;stroke-miterlimit:1;stroke-opacity:1;stroke-dasharray:none"
   id="path1644-1-5-0-9-0-6-9-7"
   inkscape:connector-curvature="0" /><path
   d="m 117.74976,436.50097 0,4.49951 L 115.5,445.5 l -2.24975,-4.49952 0,-4.49951 4.49951,0 z"
   style="fill:#ffffff;fill-opacity:1;stroke:#000000;stroke-width:0.80000001;stroke-linecap:butt;stroke-linejoin:miter;stroke-miterlimit:1;stroke-opacity:1;stroke-dasharray:none"
   id="path1644-1-5-0-9-0-2-4-4"
   inkscape:connector-curvature="0" /><path
   d="m 144.75024,436.50097 0,4.49951 L 147,445.5 l 2.24975,-4.49952 0,-4.49951 -4.49951,0 z"
   style="fill:#ffffff;fill-opacity:1;stroke:#000000;stroke-width:0.80000001;stroke-linecap:butt;stroke-linejoin:miter;stroke-miterlimit:1;stroke-opacity:1;stroke-dasharray:none"
   id="path1644-1-5-0-9-0-2-7-8-0-4"
   inkscape:connector-curvature="0" /><path
   d="m 104.25072,436.50242 0,4.49951 2.24976,4.49952 2.24975,-4.49952 0,-4.49951 -4.49951,0 z"
   style="fill:#ffffff;fill-opacity:1;stroke:#000000;stroke-width:0.80000001;stroke-linecap:butt;stroke-linejoin:miter;stroke-miterlimit:1;stroke-opacity:1;stroke-dasharray:none"
   id="path1644-1-5-0-9-0-2-7-8-0-4-0"
   inkscape:connector-curvature="0" /><text
   xml:space="preserve"
   style="font-size:8px;font-style:normal;font-weight:normal;line-height:125%;letter-spacing:0px;word-spacing:0px;fill:#000000;fill-opacity:1;stroke:none;font-family:Sans"
   x="396"
   y="139.60001"
   id="text18110-7-6-3-6-0-2-13-7-7-5-8-3"
   sodipodi:linespacing="125%"
   transform="matrix(0,1,1,0,0,0)"><tspan
     sodipodi:role="line"
     id="tspan18112-0-8-3-9-4-6-8-4-9-8-8-8"
     x="396"
     y="139.60001">be_ex</tspan></text>
<path
   d="m 140.24926,436.50049 0,4.49951 -2.24976,4.49952 -2.24975,-4.49952 0,-4.49951 4.49951,0 z"
   style="fill:#ffffff;fill-opacity:1;stroke:#000000;stroke-width:0.80000001;stroke-linecap:butt;stroke-linejoin:miter;stroke-miterlimit:1;stroke-opacity:1;stroke-dasharray:none"
   id="path1644-1-5-0-9-0-6-9-7-6"
   inkscape:connector-curvature="0" /><path
   style="fill:none;stroke:#000000;stroke-width:1px;stroke-linecap:butt;stroke-linejoin:miter;stroke-opacity:1"
   d="m 748.125,113.75 0,50.625 11.25,0"
   id="path16177"
   inkscape:connector-curvature="0"
   transform="matrix(0,0.8,0.8,0,-34,0)"
   sodipodi:nodetypes="ccc" /><path
   style="fill:none;stroke:#000000;stroke-width:1px;stroke-linecap:butt;stroke-linejoin:miter;stroke-opacity:1"
   d="m 742.5,175.625 5.625,0 11.25,0"
   id="path16197"
   inkscape:connector-curvature="0"
   transform="matrix(0,0.8,0.8,0,-34,0)"
   sodipodi:nodetypes="ccc" /><path
   style="fill:none;stroke:#000000;stroke-width:1px;stroke-linecap:butt;stroke-linejoin:miter;stroke-opacity:1"
   d="m 765,170 33.75,0"
   id="path16199"
   inkscape:connector-curvature="0"
   transform="matrix(0,0.8,0.8,0,-34,0)"
   sodipodi:nodetypes="cc" /><path
   style="fill:none;stroke:#000000;stroke-width:1px;stroke-linecap:butt;stroke-linejoin:miter;stroke-opacity:1"
   d="M 759.375,164.375 765,170"
   id="path16201"
   inkscape:connector-curvature="0"
   transform="matrix(0,0.8,0.8,0,-34,0)"
   sodipodi:nodetypes="cc" /><path
   style="fill:none;stroke:#000000;stroke-width:1px;stroke-linecap:butt;stroke-linejoin:miter;stroke-opacity:1"
   d="M 759.375,175.625 765,170"
   id="path16203"
   inkscape:connector-curvature="0"
   transform="matrix(0,0.8,0.8,0,-34,0)"
   sodipodi:nodetypes="cc" /><path
   d="m 99.75024,634.50097 0,4.49951 L 102,643.5 l 2.24975,-4.49952 0,-4.49951 -4.49951,0 z"
   style="fill:#ffffff;fill-opacity:1;stroke:#000000;stroke-width:0.80000001;stroke-linecap:butt;stroke-linejoin:miter;stroke-miterlimit:1;stroke-opacity:1;stroke-dasharray:none"
   id="path1644-1-5-0-9-0-2-4-4-2"
   inkscape:connector-curvature="0" /><rect
   style="fill:#ffffff;fill-opacity:1;fill-rule:evenodd;stroke:#0096c8;stroke-width:0.80000001;stroke-linecap:square;stroke-linejoin:miter;stroke-miterlimit:4;stroke-opacity:1;stroke-dasharray:none;stroke-dashoffset:0"
   id="rect16223"
   width="27"
   height="27"
   x="459"
   y="124.5"
   transform="matrix(0,1,1,0,0,0)"
   ry="5.2799997" /><path
   style="fill:none;stroke:#000000;stroke-width:1px;stroke-linecap:butt;stroke-linejoin:miter;stroke-opacity:1"
   d="m 556.875,203.75 16.875,0"
   id="path16225"
   inkscape:connector-curvature="0"
   transform="matrix(0,0.8,0.8,0,-34,0)" /><path
   style="fill:none;stroke:#000000;stroke-width:1px;stroke-linecap:butt;stroke-linejoin:miter;stroke-opacity:1"
   d="m 556.875,215 16.875,0"
   id="path16227"
   inkscape:connector-curvature="0"
   transform="matrix(0,0.8,0.8,0,-34,0)" /><path
   style="fill:none;stroke:#000000;stroke-width:1px;stroke-linecap:butt;stroke-linejoin:miter;stroke-opacity:1"
   d="m 556.875,226.25 16.875,0"
   id="path16229"
   inkscape:connector-curvature="0"
   transform="matrix(0,0.8,0.8,0,-34,0)" /><path
   style="fill:none;stroke:#000000;stroke-width:1px;stroke-linecap:butt;stroke-linejoin:miter;stroke-opacity:1"
   d="m 607.5,203.75 22.5,0 0,-90"
   id="path16231"
   inkscape:connector-curvature="0"
   transform="matrix(0,0.8,0.8,0,-34,0)"
   sodipodi:nodetypes="ccc" /><path
   style="fill:none;stroke:#000000;stroke-width:1px;stroke-linecap:butt;stroke-linejoin:miter;stroke-opacity:1"
   d="m 607.5,215 33.75,0 0,-101.25"
   id="path16233"
   inkscape:connector-curvature="0"
   transform="matrix(0,0.8,0.8,0,-34,0)"
   sodipodi:nodetypes="ccc" /><path
   style="fill:none;stroke:#000000;stroke-width:1px;stroke-linecap:butt;stroke-linejoin:miter;stroke-opacity:1"
   d="m 607.5,226.25 45,0 0,-112.5"
   id="path16235"
   inkscape:connector-curvature="0"
   transform="matrix(0,0.8,0.8,0,-34,0)"
   sodipodi:nodetypes="ccc" /><path
   style="fill:none;stroke:#000000;stroke-width:0.80000001;stroke-linecap:butt;stroke-linejoin:miter;stroke-miterlimit:4;stroke-opacity:1;stroke-dasharray:1.6, 1.6;stroke-dashoffset:0"
   d="m 79.5,454.5 18,0"
   id="path4532-5"
   inkscape:connector-curvature="0"
   sodipodi:nodetypes="cc" /><path
   style="fill:none;stroke:#000000;stroke-width:0.80000001;stroke-linecap:butt;stroke-linejoin:miter;stroke-miterlimit:4;stroke-opacity:1;stroke-dasharray:1.6, 1.6;stroke-dashoffset:0"
   d="m 138,459 0,27"
   id="path4532-5-4"
   inkscape:connector-curvature="0"
   sodipodi:nodetypes="cc" /><path
   style="fill:none;stroke:#000000;stroke-width:0.80000001;stroke-linecap:butt;stroke-linejoin:miter;stroke-miterlimit:4;stroke-opacity:1;stroke-dasharray:1.6, 1.6;stroke-dashoffset:0"
   d="m 129,459 0,27"
   id="path4532-5-4-1"
   inkscape:connector-curvature="0"
   sodipodi:nodetypes="cc" /><path
   style="fill:none;stroke:#000000;stroke-width:0.80000001;stroke-linecap:butt;stroke-linejoin:miter;stroke-miterlimit:4;stroke-opacity:1;stroke-dasharray:1.6, 1.6;stroke-dashoffset:0"
   d="m 147,459 0,27"
   id="path4532-5-4-9"
   inkscape:connector-curvature="0"
   sodipodi:nodetypes="cc" /><path
   style="fill:none;stroke:#000000;stroke-width:1px;stroke-linecap:butt;stroke-linejoin:miter;stroke-opacity:1;marker-start:url(#DotM-6)"
   d="m 748.125,147.5 -73.125,0 0,28.125 11.25,0"
   id="path16284"
   inkscape:connector-curvature="0"
   transform="matrix(0,0.8,0.8,0,-34,0)" /><text
   xml:space="preserve"
   style="font-size:9.60000038px;font-style:normal;font-weight:normal;line-height:125%;letter-spacing:0px;word-spacing:0px;fill:#000000;fill-opacity:1;stroke:none;font-family:Sans"
   x="558"
   y="118.7"
   id="text16480"
   sodipodi:linespacing="125%"
   transform="matrix(0,1,1,0,0,0)"><tspan
     sodipodi:role="line"
     id="tspan16482"
     x="558"
     y="118.7">E</tspan></text>
<path
   style="fill:none;stroke:#000000;stroke-width:1px;stroke-linecap:butt;stroke-linejoin:miter;stroke-opacity:1"
   d="m 731.25,113.75 0,22.5 -67.5,0 0,90 33.75,0 0,-16.875"
   id="path16484"
   inkscape:connector-curvature="0"
   transform="matrix(0,0.8,0.8,0,-34,0)"
   sodipodi:nodetypes="cccccc" /><path
   d="m 149.24975,643.5 0,-4.49951 -2.24976,-4.49952 -2.24975,4.49952 0,4.49951 4.49951,0 z"
   style="fill:#ffffff;fill-opacity:1;stroke:#000000;stroke-width:0.80000001;stroke-linecap:butt;stroke-linejoin:miter;stroke-miterlimit:1;stroke-opacity:1;stroke-dasharray:none"
   id="path1644-1-5-0-9-0-2-4-4-2-0"
   inkscape:connector-curvature="0" /><g
   id="g17930"
   transform="matrix(0,0.56589728,-0.56589728,0,351.40181,476.62137)"
   style="fill:#ffffff;fill-opacity:1"><path
     sodipodi:nodetypes="cccc"
     inkscape:connector-curvature="0"
     id="path17918"
     d="m 140.25,389.25 0,-9 13.5,0 0,9"
     style="fill:#ffffff;fill-opacity:1;stroke:#000000;stroke-width:0.80000001px;stroke-linecap:butt;stroke-linejoin:miter;stroke-opacity:1" /><path
     sodipodi:open="true"
     sodipodi:end="3.1476022"
     sodipodi:start="0"
     transform="matrix(-0.8,0,0,0.8,540.75,242)"
     d="m 500.625,184.0625 c 0,4.6599 -3.7776,8.4375 -8.4375,8.4375 -4.6599,0 -8.4375,-3.7776 -8.4375,-8.4375 0,-0.0169 5e-5,-0.0338 1.5e-4,-0.0507"
     sodipodi:ry="8.4375"
     sodipodi:rx="8.4375"
     sodipodi:cy="184.0625"
     sodipodi:cx="492.1875"
     id="path17922"
     style="fill:#ffffff;fill-opacity:1;fill-rule:evenodd;stroke:#000000;stroke-width:1;stroke-linejoin:round;stroke-miterlimit:1;stroke-opacity:1;stroke-dasharray:none;stroke-dashoffset:0"
     sodipodi:type="arc" /></g><text
   xml:space="preserve"
   style="font-size:8px;font-style:normal;font-weight:normal;line-height:125%;letter-spacing:0px;word-spacing:0px;fill:#000000;fill-opacity:1;stroke:none;font-family:Sans"
   x="593.99854"
   y="158.89951"
   id="text18110-7-6-3-6-0-2-13-7-7-5-5-8-6"
   sodipodi:linespacing="125%"
   transform="matrix(0,1,1,0,0,0)"><tspan
     sodipodi:role="line"
     id="tspan18112-0-8-3-9-4-6-8-4-9-8-87-7-9"
     x="593.99854"
     y="158.89951">ack_ex</tspan></text>
<path
   d="m 158.25024,634.5 0,4.49951 2.24976,4.49952 2.24975,-4.49952 0,-4.49951 -4.49951,0 z"
   style="fill:#ffffff;fill-opacity:1;stroke:#000000;stroke-width:0.80000001;stroke-linecap:butt;stroke-linejoin:miter;stroke-miterlimit:1;stroke-opacity:1;stroke-dasharray:none"
   id="path1644-1-5-0-9-0-2-7-8-0-4-8"
   inkscape:connector-curvature="0" /><text
   xml:space="preserve"
   style="font-size:8px;font-style:normal;font-weight:normal;line-height:125%;letter-spacing:0px;word-spacing:0px;fill:#000000;fill-opacity:1;stroke:none;font-family:Sans"
   x="396"
   y="130.60001"
   id="text18110-7-6-3-6-0-2-13-7-7-5-3-2"
   sodipodi:linespacing="125%"
   transform="matrix(0,1,1,0,0,0)"><tspan
     sodipodi:role="line"
     id="tspan18112-0-8-3-9-4-6-8-4-9-8-4-3"
     x="396"
     y="130.60001">wdata_ex</tspan></text>
</g></svg>